<svg xmlns="http://www.w3.org/2000/svg" width="276" height="584" fill="none"><path fill="url(#a)" d="M178.559 409.539c-.267.001 27.477 1.737 51.041-17.871-1.62 4.489-3.238 8.715-4.857 12.941-5.34.812-29.375 5.391-49.962 14.966-.267.001 26.139 2.797 49.692-14.174l-5.657 12.681c-5.072.547-28.299 3.276-48.347 11.531-.266.001 24.799 4.121 48.077-10.739-2.153 4.228-4.304 8.192-6.455 12.156-4.537.018-26.957 1.425-46.733 8.36-.266.001 23.195 4.919 46.196-7.567l-7.255 11.896c-4.268-.247-25.348-.427-44.852 5.452-.267.001 21.857 5.715 44.315-4.659-2.685 3.966-5.369 7.669-8.053 11.372-4-.512-24.007-2.015-42.705 2.542 0 0 20.253 6.513 42.169-2.013-2.95 3.704-5.901 7.407-8.851 10.847-3.733-.512-22.4-3.339-40.294.16 0 0 18.917 7.045 40.025.369a171.213 171.213 0 0 1-9.649 10.323c-3.199-.779-20.796-4.401-37.884-1.96 0 0 17.313 7.579 37.616 2.225-3.217 3.441-6.699 6.619-10.181 9.797-2.932-.779-19.191-5.198-35.474-3.815 0 0 15.977 7.848 34.939 4.081a184.85 184.85 0 0 1-10.979 9.273c-2.398-1.045-17.32-5.996-32.799-5.407 0 0 14.642 8.117 32.531 5.672-3.748 2.916-7.496 5.831-11.51 8.485-2.13-1.047-15.716-6.531-30.125-6.737 0 0 13.041 8.123 29.857 7.001l-12.041 7.959c-1.864-1.047-13.846-7.065-27.452-7.802 0 0 11.707 8.129 27.185 7.803-4.281 2.654-8.293 5.044-12.838 7.171-1.331-.785-12.246-7.071-24.78-8.604 0 0 10.373 7.871 24.513 8.606-4.28 2.39-8.825 4.518-13.369 6.382-.798-.525-10.377-7.079-22.11-8.879 0 0 9.04 7.612 21.843 8.88-1.604.797-3.476 1.596-5.079 2.129-.8-.26-13.061-3.376-25.875-2.007 0 0 12.255 4.699 25.608 2.009-2.138.799-4.277 1.862-6.415 2.662.268-.265.535-.266.803-.531 0 0-14.418 1.904-26.984 7.755 0 0 14.145-.583 25.914-7.223 2.138-.799 4.543-1.6 6.682-2.663-1.605 1.061-12.578 8.752-19.556 18.273 0 0 13.64-7.438 19.823-18.275 1.605-.797 3.475-1.332 5.079-2.129-7.515 10.314-10.767 22.194-10.767 22.194 9.38-9.531 10.763-21.139 10.767-22.194 4.544-1.864 9.089-3.992 13.369-6.382-7.522 11.896-10.245 25.093-10.245 25.093 9.652-10.851 10.505-23.512 10.512-25.094a156.773 156.773 0 0 0 12.838-7.172c-7.261 13.478-9.723 27.992-9.723 27.992 9.925-12.434 9.715-26.146 9.723-27.992 4.28-2.39 8.293-5.043 12.308-7.96-7.001 15.06-8.668 30.889-8.668 30.889 9.931-13.753 8.926-28.78 8.935-30.89 4.014-2.653 7.762-5.568 11.51-8.484-6.474 16.639-7.346 33.784-7.346 33.784 9.938-15.598 7.869-31.413 7.614-34.049a185.23 185.23 0 0 0 10.979-9.273c-5.68 18.218-5.757 36.678-5.757 36.678 9.678-17.179 6.547-34.044 6.025-36.943 3.482-3.178 6.964-6.357 10.448-9.799-4.886 19.798-3.9 39.308-3.9 39.308 9.418-18.76 4.956-36.675 4.169-39.836l9.649-10.323c-3.824 21.112-1.776 41.937-1.51 42.199 8.892-20.604 3.099-39.305 2.045-42.465 3.217-3.441 6.167-7.145 8.851-10.847-2.496 22.689.881 44.563.88 44.827 8.366-22.449.975-41.67-.611-45.356 2.951-3.703 5.635-7.406 8.32-11.372-1.168 24.002 3.538 47.19 3.538 47.19 7.574-24.292-1.415-44.298-3.269-47.719 2.685-3.966 5.103-7.931 7.522-11.896.426 25.578 6.463 49.551 6.73 49.55 6.514-26.133-4.075-46.396-6.193-50.344 2.418-3.965 4.57-8.193 6.722-12.157 2.022 26.89 9.923 51.648 9.923 51.648 5.453-27.711-7-48.759-9.653-52.44 2.152-4.228 4.038-8.455 5.923-12.682 3.886 27.938 13.384 53.744 13.651 53.743 4.393-29.553-10.194-50.856-13.114-54.536 1.886-4.227 3.506-8.716 5.124-12.942 6.017 28.984 17.379 55.574 17.379 55.574 2.8-31.393-13.655-52.688-17.107-56.63 1.891-5.545 3.782-11.091 5.407-16.899-.532-.261-1.333-.258-1.865-.52-1.359 5.807-3.25 11.353-5.141 16.898-4.809 1.338-29.919 7.766-50.779 18.925Z"/><path fill="url(#b)" d="M214.661 454.49c-.267.001 18.187-9.829 25.216-31.745.786 3.425 1.573 6.85 2.092 10.276-2.946 2.649-16.607 15.098-25.741 29.638-.267.001 17.914-8.51 26.004-28.848l1.558 10.279c-2.945 2.385-16.599 13.251-26.262 26.739-.267.001 17.375-7.19 26.259-25.948l.758 10.282c-2.943 1.857-16.593 11.669-26.518 23.839-.266.001 16.837-6.133 26.515-23.312.253 3.427.239 6.855.223 10.547-2.942 1.594-16.585 9.823-26.506 21.202 0 0 16.299-5.075 26.504-20.674-.014 3.428-.296 6.857-.578 10.551-2.674 1.329-16.045 8.238-26.228 18.563 0 0 15.76-4.018 26.227-18.3-.281 3.43-.562 6.859-1.112 10.553-2.672 1.065-15.772 6.919-25.684 16.188 0 0 14.955-2.96 25.683-15.924-.548 3.43-1.096 6.86-1.911 10.292-2.405.801-14.966 5.597-25.141 13.813 0 0 14.152-2.166 24.873-13.548l-2.444 10.294c-2.137.536-14.428 4.277-24.332 11.7 0 0 13.348-1.372 24.064-11.435-1.082 3.432-1.897 6.864-3.245 10.297-1.871.535-13.623 3.219-23.256 9.586 0 0 12.544-.577 22.988-9.321-1.082 3.433-2.43 6.602-3.778 10.036-1.869.271-12.818 2.161-21.914 7.735 0 0 11.742-.047 21.913-7.471-1.349 3.433-2.963 6.604-4.578 9.775-1.601.006-11.745 1.102-20.839 6.148 0 0 10.939.484 20.572-5.883-1.615 3.171-3.23 6.605-5.111 9.777-1.335.006-10.675.306-19.232 4.56 0 0 9.869 1.015 19.23-4.296-1.881 3.172-3.762 6.344-5.91 9.517-.8.003-9.605-.225-17.892 3.236 0 0 9.067 1.282 17.624-2.971-.805 1.058-1.611 2.38-2.416 3.438-.535.266-9.886 3.203-17.382 9.035 0 0 9.614-1.884 17.382-9.035-1.073 1.322-1.88 2.908-2.953 4.231.001-.264.268-.265.269-.529 0 0-8.568 6.891-13.941 15.614 0 0 8.831-6.1 13.671-14.822 1.073-1.322 2.147-2.909 3.22-4.232-.539 1.321-4.581 10.567-5.151 19.272 0 0 5.646-10.044 5.152-19.535.805-1.058 1.611-2.38 2.416-3.438-.573 9.496 2.059 18.188 2.059 18.188 2.175-9.766-1.794-17.662-2.058-18.452 2.148-3.173 4.028-6.081 5.909-9.253-.044 10.548 3.652 20.027 3.652 20.027 1.647-10.818-3.122-18.974-3.652-20.027 1.882-3.172 3.496-6.343 5.377-9.515.753 11.336 5.246 21.603 5.246 21.603 1.383-11.608-4.45-20.551-5.246-21.603a161.197 161.197 0 0 0 4.577-9.775c1.817 12.123 7.109 22.914 7.109 22.914.587-12.66-6.046-21.864-7.108-23.178 1.349-3.434 2.696-6.604 4.045-10.037 2.614 12.911 9.238 24.224 9.238 24.224.057-13.713-7.908-23.175-8.97-24.489 1.082-3.432 2.43-6.866 3.245-10.297 3.679 13.698 11.368 25.534 11.368 25.534-.739-14.765-9.772-24.222-11.367-25.798 1.082-3.433 1.897-6.864 2.712-10.296 5.009 14.485 13.764 26.58 13.764 26.58-1.801-15.815-11.902-25.268-13.763-26.843.815-3.432 1.363-6.862 1.911-10.292 6.341 15.006 16.163 27.361 16.163 27.361-2.866-16.602-14.034-26.051-16.162-27.625.548-3.431 1.096-6.861 1.378-10.554 7.674 15.528 18.829 27.878 18.829 27.878-3.929-17.389-16.431-26.833-18.826-28.405.281-3.43.562-6.859.577-10.551 9.007 15.787 21.496 28.395 21.763 28.394-4.993-18.44-19.098-27.35-21.76-28.921l.044-10.549c10.606 16.044 24.429 28.647 24.696 28.646-6.324-19.225-21.764-27.867-24.693-29.437-.252-3.427-.238-6.856-.756-10.546 12.207 16.038 27.63 28.899 27.63 28.899-7.922-19.747-24.431-28.12-27.628-29.426-.253-3.427-.772-6.853-1.291-10.279 13.807 16.295 30.567 28.623 30.834 28.621-9.521-20.531-27.367-28.108-30.831-29.413-.519-3.426-1.305-6.851-2.092-10.276 15.677 16.024 33.771 28.347 34.037 28.346-11.119-21.053-30.303-27.833-34.033-29.137-1.05-4.215-2.099-8.694-3.682-12.907-.535.266-1.069.268-1.337.533 1.317 4.214 2.634 8.428 3.683 12.643-2.944 2.121-16.345 16.151-24.949 31.744Z"/><path fill="url(#c)" d="M193.181 358.849c-.269.528-26.97 4.326-30.211 13.833-3.778 10.035 5.291 10.791 5.291 10.791-.269.528-28.581 6.969-32.614 14.106-4.301 7.664 3.957 11.06 3.957 11.06-.001.263-22.429 3.253-28.861 9.871-6.433 6.882 3.436 7.898 3.436 7.898-.001.264-20.83 3.775-26.185 8.279-5.357 4.768 2.895 9.746 3.162 9.745-.002.263-22.428 2.989-26.179 6.696-3.754 4.234 1.307 6.588 1.307 6.588-.002.263-26.169 4.323-25.41 14.077 1.024 10.544 29.074 3.049 28.808 2.787 0 0-4.023 4.762 1.307 6.587 5.594 2.088 28.86-9.872 28.594-10.134 0 0-4.843 9.513 3.161 9.744 8.272.231 29.414-14.62 29.148-14.883 0 0-7.777 9.261 3.436 7.898 11.747-1.365 30.779-22.01 30.247-22.272 0 0-1.909 9.765 8.771 8.14 11.481-1.627 32.157-32.3 31.623-32.298 0 0-2.444 10.031 10.915 6.022 14.162-4.539 22.299-35.953 21.764-35.687.001-.263 3.388 19.238 19.487-1.923 16.372-22.48-14.454-52.948-14.456-52.421-.268.265-41.306-13.021-54.434-.575-13.663 12.976 3.669 16.072 3.936 16.071Z"/><path fill="#F6F1E8" d="M189.779 342.776c-14.197 12.978 3.135 16.074 3.402 16.073-.269.528-26.97 4.326-30.211 13.833-3.778 10.035 5.291 10.791 5.291 10.791-.269.528-28.581 6.969-32.614 14.106-4.301 7.664 3.957 11.06 3.957 11.06-.001.263-22.429 3.253-28.86 9.871-2.413 2.647-2.688 4.494-1.625 5.545 30.194-9.614 74.784-16.12 91.746 11.503 3.22-4.233 5.101-7.405 5.371-8.197l.001-.263-.001.263c-.271 1.056-1.642 9.764 10.916 5.759 13.627-4.274 21.756-33.842 21.764-35.688.261 1.318 3.927 18.181 19.489-2.186 16.371-22.481-14.455-52.949-14.457-52.421-.002.527-41.041-12.759-54.169-.049Z" opacity=".07"/><path fill="#F6F1E8" d="M178.704 374.992c12.805.741 26.148.424 39.763-.948-15.55 17.466-33.227 33.095-52.228 46.356-13.079.843-25.885.366-38.423-.639 11.467 1.801 23.205 2.545 35.479 2.76a294.403 294.403 0 0 1-63.114 33.214c-.534.002-1.601.007-2.934-.252-2.134-.255-5.07-.243-8.004-.495-2.934-.253-5.602-.242-8.003-.496-2.134.008-3.468-.25-3.468-.25s1.334.258 3.467.514c2.134.255 4.801.508 7.735.76 2.935.252 5.87.24 8.005.232l2.935-.012c-14.968 5.861-30.197 10.405-45.954 13.632 26.44-5.379 52.094-14.183 76.161-26.41-.536.53-1.341 1.588-2.415 3.174-1.611 2.38-4.025 5.291-6.173 8.464l-5.907 8.726-2.685 3.966s1.341-1.588 3.484-3.706c1.878-2.381 4.292-5.291 6.707-8.465 2.148-3.173 4.296-6.346 5.64-8.725.807-1.585 1.613-2.907 1.882-3.436 12.034-6.113 23.536-12.751 34.775-20.443 9.901-6.632 19.272-14.053 28.377-21.737a281.185 281.185 0 0 1-10.573 39.598c5.662-13.999 9.99-27.993 12.983-41.717a301.211 301.211 0 0 0 39.67-42.351 291.474 291.474 0 0 1 8.677 30.819c-1.554-11.333-3.909-22.399-7.067-32.935 4.294-5.819 8.321-11.636 12.349-17.718-.8-.26-1.331-.785-2.131-1.046-8.326 12.955-17.45 25.122-27.371 36.764-14.151 1.902-28.031 3.012-41.639 2.802Z" opacity=".8"/><path fill="url(#d)" d="M190.75 174.526c-.267.001 27.493-1.955 50.894 17.467-1.582-4.477-3.166-8.69-4.749-12.903-5.334-.77-29.331-5.158-49.839-14.57-.267.001 26.163-3.005 49.575 13.78l-5.551-12.636c-5.067-.508-28.272-3.053-48.251-11.148-.267.001 24.834-4.318 47.988 10.358-2.117-4.211-4.235-8.159-6.354-12.106-4.536.018-26.946-1.211-46.664-7.99-.266.001 23.237-5.102 46.134 7.201l-7.155-11.838c-4.271.28-25.353.628-44.808-5.097-.267.001 21.905-5.888 44.277 4.308-2.652-3.946-5.305-7.627-7.958-11.308-4.004.543-24.025 2.205-42.685-2.204 0 0 20.308-6.674 42.154 1.678-2.92-3.68-5.84-7.36-8.761-10.777-3.738.542-22.429 3.517-40.294.16 0 0 18.976-7.195 40.029-.423a167.176 167.176 0 0 0-9.564-10.246c-3.205.804-20.833 4.565-37.901 2.26 0 0 17.377-7.717 37.635-2.523-3.187-3.415-6.643-6.566-10.099-9.717-2.939.803-19.235 5.35-35.507 4.096 0 0 16.044-7.974 34.974-4.358-3.455-3.15-7.178-6.3-10.902-9.186-2.406 1.064-17.37 6.134-32.845 5.668 0 0 14.711-8.233 32.58-5.93-3.724-2.887-7.448-5.773-11.439-8.394-2.14 1.063-15.772 6.655-30.183 6.976 0 0 13.11-8.227 29.917-7.239l-11.975-7.864c-1.872 1.063-13.906 7.176-27.518 8.02 0 0 11.775-8.22 27.251-8.019-4.258-2.62-8.251-4.977-12.779-7.069-1.337.796-12.305 7.169-24.853 8.801 0 0 10.44-7.953 24.586-8.8-4.259-2.356-8.787-4.448-13.315-6.276-.803.53-10.437 7.162-22.186 9.054 0 0 9.105-7.684 21.919-9.053-1.598-.785-3.463-1.569-5.062-2.09-.801.267-13.09 3.48-25.892 2.213 0 0 12.294-4.796 25.626-2.212-2.132-.782-4.262-1.829-6.394-2.611.266.262.533.261.799.524 0 0-14.402-1.789-26.92-7.54 0 0 14.14.47 25.854 7.017 2.132.783 4.53 1.564 6.661 2.61-1.597-1.048-12.506-8.652-19.404-18.118 0 0 13.578 7.33 19.67 18.117 1.598.785 3.464 1.305 5.062 2.09-7.429-10.255-10.581-22.11-10.581-22.11 9.299 9.457 10.585 21.055 10.581 22.11 4.528 1.828 9.056 3.92 13.316 6.276-7.423-11.837-10.037-24.749-10.036-25.012 9.561 10.774 10.309 23.429 10.302 25.011a153.629 153.629 0 0 1 12.779 7.07c-7.148-13.421-9.489-27.916-9.489-27.916 9.821 12.355 9.497 26.07 9.489 27.916 4.26 2.356 8.251 4.977 12.242 7.862-6.875-15.004-8.41-30.82-8.41-30.82 9.816 13.674 8.686 28.71 8.677 30.82 3.992 2.62 7.715 5.507 11.439 8.392-6.335-16.588-7.064-33.726-7.064-33.726 9.809 15.52 7.608 31.35 7.33 33.99a180.954 180.954 0 0 1 10.902 9.186c-5.528-18.174-5.451-36.634-5.451-36.634 9.535 17.103 6.262 33.993 5.716 36.896 3.456 3.151 6.912 6.302 10.367 9.716-4.721-19.759-3.572-39.278-3.572-39.278 9.262 18.687 4.65 36.637 3.836 39.805l9.564 10.246c-3.648-21.082-1.426-41.924-1.158-42.188 8.72 20.534 2.771 39.281 1.69 42.45 3.188 3.416 6.108 7.096 8.761 10.777-2.307-22.669 1.254-44.571 1.255-44.835 8.178 22.383.626 41.663-.99 45.362 2.919 3.68 5.572 7.361 8.224 11.307-.967-23.994 3.934-47.22 3.934-47.22 7.37 24.232-1.787 44.31-3.669 47.746 2.652 3.945 5.037 7.891 7.422 11.837.641-25.582 6.879-49.604 7.146-49.605 6.295 26.082-4.464 46.43-6.616 50.394 2.385 3.947 4.503 8.158 6.621 12.105 2.247-26.907 10.356-51.728 10.356-51.728 5.221 27.668-7.409 48.815-10.093 52.518 2.117 4.211 3.968 8.423 5.818 12.635 4.12-27.97 13.834-53.852 14.101-53.853 4.146 29.519-10.62 50.938-13.571 54.642 1.851 4.212 3.433 8.689 5.016 12.902 6.259-29.033 17.845-55.714 17.845-55.714 2.537 31.372-14.097 52.798-17.582 56.767 1.845 5.531 3.689 11.062 5.266 16.857-.535.266-1.335.269-1.87.535-1.31-5.797-3.155-11.327-4.999-16.858-5.065-1.298-29.855-7.529-50.622-18.786Z"/><path fill="url(#e)" d="M160.957 279.6c-.268.265 25.394-10.385 53.899.841-2.92-3.68-5.84-7.36-8.761-10.777-5.34.812-29.637 4.337-52.04 1.525-.268.265 23.795-11.17 51.51-2.314-2.921-3.417-6.109-6.832-9.297-10.248-4.807 1.074-27.776 5.912-49.651 4.417-.268.264 22.197-11.692 49.12-4.942-3.189-3.152-6.644-6.567-10.101-9.454-4.542 1.337-25.914 7.223-46.993 7.043-.001.264 20.598-12.212 46.195-7.567a171.585 171.585 0 0 0-10.636-8.924c-4.01 1.598-24.052 8.534-44.068 9.141-.001.264 18.998-12.469 43.536-9.666-3.724-2.886-7.448-5.508-11.173-8.131-3.743 1.597-22.187 9.318-41.14 10.976 0 0 17.398-12.727 40.608-11.501-3.724-2.622-7.716-5.244-11.709-7.601-3.21 1.859-20.322 10.101-38.211 12.546 0 0 15.797-12.721 37.945-12.809-3.992-2.357-7.985-4.715-12.246-6.808-2.943 1.858-18.456 10.622-35.281 13.853 0 0 14.196-12.714 35.015-14.115-4.26-2.093-8.521-4.186-12.783-6.015-2.409 1.856-16.591 11.142-32.35 14.896 0 0 12.862-12.709 32.084-15.158-4.261-1.83-8.79-3.658-13.32-5.222-2.141 1.591-14.723 11.134-29.418 15.676 0 0 11.26-12.439 29.151-15.675-4.529-1.564-9.059-3.128-13.59-4.429-1.608 1.589-12.855 11.127-26.484 15.928 0 0 9.923-11.906 26.217-15.927-4.53-1.3-9.329-2.6-13.86-3.637-1.34 1.324-10.987 11.12-23.55 16.18 0 0 8.586-11.374 23.55-16.18-4.8-1.036-9.598-2.071-14.398-2.843-1.073 1.322-9.384 10.585-20.88 15.905 0 0 7.517-10.842 20.613-15.904-4.8-.772-9.6-1.544-14.668-2.052-.537.793-7.78 10.052-18.21 15.631 0 0 6.18-10.309 17.944-15.63-1.867-.256-3.735-.249-5.602-.505-.803.531-11.505 7.43-24.058 10.117 0 0 10.174-8.216 23.791-10.116-2.4-.254-4.535-.246-6.936-.5.267-.001.534-.002.8.261 0 0-14.155 2.957-28.023 1.166 0 0 13.625-4.01 26.957-1.426 2.401-.009 4.802.245 7.202.499-1.866-.52-14.659-4.161-24.236-10.979 0 0 15.198 2.84 24.503 10.978 1.868-.007 3.735.249 5.602.505-10.377-7.342-17.005-17.601-17.005-17.601 11.716 6.019 16.742 16.547 17.271 17.6 4.801.509 9.87 1.016 14.67 1.788-10.904-8.923-17.527-20.5-17.527-20.5 12.512 7.071 17.265 19.182 17.793 20.499 4.8.772 9.6 1.544 14.399 2.58-11.164-10.504-17.78-23.4-17.78-23.4 13.038 8.651 17.52 21.819 18.047 23.399 4.798 1.036 9.33 2.336 14.127 3.636-11.157-12.087-17.767-26.564-17.767-26.564 13.834 9.966 17.509 24.455 18.034 26.563 4.531 1.3 9.06 2.864 13.59 4.429-11.15-13.669-17.487-29.73-17.487-29.73 14.094 11.547 17.23 27.357 17.754 29.729 4.53 1.564 8.792 3.393 13.32 5.221-10.875-15.516-16.673-32.897-16.673-32.897 14.621 13.127 16.684 30.26 17.206 33.159 4.262 1.829 8.522 3.921 12.783 6.014-10.602-17.099-15.859-36.065-15.858-36.329 14.613 14.974 16.137 33.427 16.125 36.328 4.261 2.093 8.253 4.45 12.513 6.807-10.061-18.947-14.511-39.499-14.511-39.499 14.873 16.818 15.058 36.332 15.044 39.76 3.992 2.358 7.984 4.979 11.977 7.337-9.519-20.795-13.164-42.669-12.897-42.67 14.865 18.664 13.711 39.502 13.428 43.195 3.992 2.621 7.717 5.244 11.441 8.13-8.713-22.381-11.283-45.841-11.015-46.106 14.591 20.512 12.364 42.408 11.814 46.366 3.724 2.886 7.181 5.773 10.903 8.923-7.637-24.231-9.134-49.014-8.866-49.278 14.315 22.622 10.483 45.58 9.664 49.802 3.456 3.151 6.912 6.302 10.101 9.454-6.295-26.082-6.72-52.188-6.452-52.453 13.773 24.734 8.336 48.49 7.25 52.977a181.04 181.04 0 0 1 9.564 10.247c-4.955-27.67-3.771-55.364-3.771-55.364 13.229 26.846 5.922 51.4 4.301 56.153 3.188 3.415 6.108 7.096 8.761 10.777-3.346-29.522-.824-58.276-.557-58.277 12.42 28.958 3.242 54.311 1.354 59.065 3.716 4.732 6.898 9.466 10.346 14.463-.535.266-1.07.795-1.605 1.061-3.181-4.998-6.631-9.731-10.08-14.464-7.475.821-33.1 2.769-56.298-1.359Z" opacity=".82"/><path fill="url(#f)" d="M204.639 224.98c-.264-.522-26.992-4.013-30.135-13.434-3.674-9.942 5.428-10.791 5.428-10.791-.264-.522-28.579-6.625-32.541-13.68-4.226-7.577 4.092-11.044 4.092-11.044.002-.262-22.449-3.257-28.825-9.509-6.373-6.776 3.534-7.892 3.534-7.892.002-.263-20.842-3.531-26.161-7.953-5.317-4.685 3.012-9.726 3.28-9.728.002-.262-22.454-2.732-26.173-6.379-3.715-4.171 1.385-6.566 1.385-6.566.002-.263-26.19-4.019-25.317-13.73 1.145-10.499 29.185-3.346 28.916-3.082 0 0-3.98-4.694 1.384-6.566 5.634-2.137 28.826 9.508 28.557 9.772 0 0-4.748-9.41 3.28-9.727 8.296-.319 29.327 14.227 29.057 14.491 0 0-7.693-9.128 3.535-7.893 11.763 1.231 30.612 21.562 30.075 21.828 0 0-1.803-9.693 8.888-8.192 11.493 1.496 31.876 31.783 31.341 31.787 0 0-2.337-9.951 11.013-6.108 14.148 4.363 21.95 35.522 21.417 35.264-.002.262 3.616-19.172 19.518 1.703 16.16 22.185-15.094 52.824-15.09 52.299-.266-.261-41.564 13.397-54.586 1.158-13.553-12.76 3.863-16.288 4.128-16.028Z"/><path fill="#F6F1E8" d="M201.024 241.219c-14.087-12.755 3.325-16.021 3.593-16.023-.264-.523-26.991-4.013-30.134-13.433-3.674-9.942 5.428-10.79 5.428-10.79-.264-.523-28.578-6.625-32.54-13.679-4.226-7.578 4.092-11.044 4.092-11.044.002-.262-22.449-3.257-28.825-9.508-2.389-2.606-2.643-4.44-1.566-5.497 30.165 9.237 74.799 15.228 92.119-12.429 3.18 4.175 5.03 7.31 5.292 8.095l-.002.262.002-.262c-.26-1.047-1.536-9.694 11.011-5.845 13.614 4.104 21.43 33.425 21.416 35.261.277-1.313 4.143-18.125 19.516 1.966 16.16 22.183-15.093 52.819-15.089 52.295.005-.787-41.024 12.868-54.313.631Z" opacity=".05"/><path fill="#F6F1E8" d="M190.598 208.854c12.849-.874 26.226-.703 39.863.515-15.395-17.21-32.944-32.568-51.848-45.556-13.105-.698-25.953-.085-38.537 1.05 11.519-1.915 23.298-2.783 35.609-3.129a288.095 288.095 0 0 0-62.913-32.364c-.535.004-1.605.011-2.945.283-2.143.277-5.086.297-8.031.579-2.946.283-5.621.301-8.032.58-2.14.014-3.48.286-3.48.286s1.34-.272 3.482-.549c2.143-.277 4.82-.557 7.766-.84 2.945-.282 5.888-.302 8.029-.317l2.943-.02c-14.943-5.67-30.163-10.026-45.927-13.066 26.453 5.066 52.078 13.549 76.073 25.453-.531-.521-1.326-1.565-2.385-3.132-1.589-2.35-3.976-5.22-6.094-8.354l-5.825-8.617-2.647-3.917s1.328 1.302 3.452 3.649c1.856 2.348 4.243 5.218 6.629 8.35 2.118 3.133 4.236 6.267 5.557 8.619.791 1.569 1.585 2.875 1.849 3.398 11.997 5.952 23.456 12.433 34.64 19.964 9.853 6.492 19.165 13.774 28.208 21.32a273.474 273.474 0 0 0-10.152-39.283c5.519 13.867 9.7 27.743 12.546 41.365a290.878 290.878 0 0 1 39.3 41.708 293.175 293.175 0 0 0 9.05-30.757c-1.686 11.293-4.174 22.328-7.46 32.844 4.24 5.743 8.212 11.488 12.182 17.494-.804.268-1.343.797-2.148 1.065-8.202-12.799-17.213-24.806-27.031-36.282-14.168-1.74-28.344-2.43-41.723-2.339Z" opacity=".8"/><path fill="url(#g)" d="M258.907 424.572s24.981 67.398-82.865 115.199c.001-.263.814-112.795 82.865-115.199Z"/><path fill="#F6F1E8" d="M207.138 447.532c20.842 11.431 20.104 39.579 15.093 64.863 53.423-42.71 36.579-87.834 36.579-87.834-23.076.683-39.775 10.002-51.672 22.971Z" opacity=".1"/><path fill="#F6F1E8" d="m196.35 469.688 32.212-5.479-24.385 35.399-18.253 3.017 17.169-1.432-7.317 10.83-.536.004-.004.526-11.648 16.644 11.641-15.593.441 13.144 1.179-14.732-.268.002 21.116-28.278.616 26.025 1.008-28.14 25.99-34.884-.01 1.315-.095 13.147-.138 19.194s.604-9.469.943-19.2c.302-4.734.604-9.469.631-13.15.009-1.315.287-2.632.294-3.683l13.809-18.763-3.734-2.603-27.093 39.098-33.568 7.592Z" opacity=".4"/><path fill="url(#h)" d="M243.394 135.899s48.742-54.54-34.237-135.57c-.269.001-41.848 105.55 34.237 135.57Z"/><path fill="#F6F1E8" d="M203.708 96.737c23.64-3.58 33.76-30.218 38.503-55.504 33.934 57.906 1.202 94.43 1.202 94.43-21.408-8.272-33.381-22.659-39.705-38.926Z" opacity=".05"/><path fill="#F6F1E8" d="m201.675 72.496 28.11 15.87-9.655-41.261-16.063-9.106 15.54 7.004-2.868-12.616-.267-.261.273-.528-4.702-19.447 4.978 18.392 5.192-12.143-4.401 14.243-.266-.261 9.171 33.631 10.382-24.022-9.594 26.649 11.268 41.25c.271-.265.274-.791.547-1.319 1.368-3.431 3.012-7.917 4.925-12.404l7.114-17.946s-3.02 8.97-6.31 18.204c-1.644 4.485-3.021 9.232-4.118 12.398-.547 1.32-.825 2.638-1.1 3.429l6.028 22.071-4.577 1.083-10.699-45.73-28.908-17.18Z" opacity=".4"/><path fill="url(#i)" d="M204.993 292.611s-11.635-56.259-104.793-42.793c0 0 47.864 75.93 104.793 42.793Z"/><path fill="#F6F1E8" d="M159.959 298.79c9.223-16.605-2.956-35.426-17.304-50.293 54.299 6.192 62.055 44.209 62.055 44.209-15.862 9.299-31.125 9.928-44.751 6.084Z" opacity=".1"/><path fill="#F6F1E8" d="m143.501 288.565 24.134-9.853-31.457-13.41-13.676 5.592 12.078-6.367-9.597-4.127-.269.264-.264-.522-14.928-6.449 14.399 5.667-5.283-9.133 7.153 9.382-.27.264 26.131 10.302-10.57-17.74 12.704 18.512 32.264 12.619c-.265-.26-.263-.522-.529-.782-1.588-2.347-3.703-5.738-5.552-8.869-3.965-6.521-8.199-12.78-8.199-12.78s4.234 6.259 8.735 12.515c2.117 3.129 4.502 6.256 6.089 8.603.797.78 1.326 1.563 1.588 2.347l17.333 6.694-1.361 3.414-34.922-14.959-25.731 8.816Z" opacity=".6"/><path fill="url(#j)" d="M121.641 400.19S97.97 458.993.061 429.535c0 0 66.822-74.275 121.58-29.345Z"/><path fill="#F6F1E8" d="M23.427 408.958c25.182-7.237 48.429-5.297 69.107 19.703 22.001-11.144 29.074-28.473 29.074-28.473-34.557-28.311-73.725-9.198-98.18 8.77Z" opacity=".2"/><path fill="#F6F1E8" d="m54.305 394.929 24.221 14.489-36.683 9.654-13.84-8.279 11.966 8.815-11.246 2.95-.265-.26-.27.263-17.404 4.56 16.864-3.772-7.278 8.94 9.417-8.953-.266-.26 30.249-6.736-14.822 17.62 17.229-17.897 37.476-8.352-.807.79c-2.155 2.368-5.117 5.526-7.811 8.682l-11.313 12.628 11.844-12.109c2.96-2.896 5.921-6.054 8.342-8.162l2.152-2.106 20.077-4.577-1.042-3.917-40.698 10.466-26.092-14.477Z" opacity=".6"/><defs><linearGradient id="a" x1="-54.063" x2="388.361" y1="72.258" y2="947.566" gradientUnits="userSpaceOnUse"><stop stop-color="#F6F1E8" stop-opacity="0"/><stop offset="1" stop-color="#F6F1E8"/></linearGradient><linearGradient id="b" x1="50.34" x2="629.648" y1="387.381" y2="755.055" gradientUnits="userSpaceOnUse"><stop stop-color="#F6F1E8" stop-opacity="0"/><stop offset="1" stop-color="#F6F1E8"/></linearGradient><linearGradient id="c" x1="-267.826" x2="521.157" y1="216.472" y2="748.158" gradientUnits="userSpaceOnUse"><stop stop-color="#F6F1E8" stop-opacity="0"/><stop offset="1" stop-color="#F6F1E8"/></linearGradient><linearGradient id="d" x1="38.306" x2="278.033" y1="384.785" y2="-119.032" gradientUnits="userSpaceOnUse"><stop stop-color="#F6F1E8" stop-opacity="0"/><stop offset="1" stop-color="#F6F1E8"/></linearGradient><linearGradient id="e" x1="76.701" x2="168.959" y1="483.789" y2="-144.473" gradientUnits="userSpaceOnUse"><stop stop-color="#F6F1E8" stop-opacity="0"/><stop offset="1" stop-color="#F6F1E8"/></linearGradient><linearGradient id="f" x1="-422.06" x2="375.564" y1="448.487" y2="-88.156" gradientUnits="userSpaceOnUse"><stop stop-color="#F6F1E8" stop-opacity="0"/><stop offset="1" stop-color="#81637D"/></linearGradient><linearGradient id="g" x1="-443.473" x2="652.385" y1="392.924" y2="561.923" gradientUnits="userSpaceOnUse"><stop stop-color="#fff" stop-opacity="0"/><stop offset="1" stop-color="#F6F1E8"/></linearGradient><linearGradient id="h" x1="-491.546" x2="588.614" y1="-84.525" y2="169.09" gradientUnits="userSpaceOnUse"><stop stop-color="#F6F1E8"/><stop offset="1" stop-color="#81637D" stop-opacity=".51"/></linearGradient><linearGradient id="i" x1="-334.059" x2="505.014" y1="674.977" y2="-47.053" gradientUnits="userSpaceOnUse"><stop stop-color="#F6F1E8"/><stop offset="1" stop-color="#fff" stop-opacity="0"/></linearGradient><linearGradient id="j" x1="-258.272" x2="439.183" y1="47.072" y2="881.806" gradientUnits="userSpaceOnUse"><stop stop-color="#F6F1E8"/><stop offset="1" stop-color="#81637D"/></linearGradient></defs></svg>