<svg xmlns="http://www.w3.org/2000/svg" width="1914" height="324" fill="none"><path fill="#81637D" fill-opacity=".06" d="M16.263 85.077c7.528 3.19 25.77 2.9 25.77 2.9.29 0-4.053-11.89-4.343-12.76-4.054-8.41-16.794-22.33-26.929-20.88-7.528.87-11.582 8.41-9.845 15.37 1.738 7.25 8.977 12.47 15.347 15.37Z"/><path fill="#81637D" fill-opacity=".06" d="M22.633 138.146c7.818 1.16 24.033-3.48 25.481-4.06 2.606 9.28 6.08 18.27 9.845 27.549 2.316 5.22 4.633 10.44 7.239 15.66-1.448-2.32-2.896-4.06-3.185-4.35-6.081-6.96-22.007-17.109-31.562-13.05-6.95 2.9-8.976 11.31-5.502 17.69 3.475 6.38 12.162 9.57 18.822 10.73 6.949 1.16 20.848-2.61 24.612-3.77.869 2.03 2.027 4.06 2.895 5.8 4.633 9.57 9.556 18.85 13.9 28.129 1.447 3.19 2.895 6.67 4.343 9.86-1.448-2.03-2.317-3.48-2.606-3.77-6.081-6.96-22.007-17.109-31.562-13.049-6.95 2.9-8.976 11.309-5.502 17.689 3.475 6.38 12.162 9.57 18.822 10.73 6.66.87 19.69-2.32 24.033-3.48 1.447 3.48 2.606 6.96 3.764 10.15.868 2.32 1.737 4.64 2.316 6.96.58 2.32 1.159 4.64 2.027 6.96 1.158 4.35 2.317 8.99 3.185 13.339.579 2.9 1.159 6.09 1.738 8.99-1.448-3.19-4.633-9.57-4.923-10.15-4.922-7.829-19.11-20.299-29.245-17.689-7.239 1.74-10.424 9.86-8.107 16.53 2.606 6.959 10.424 11.309 17.083 13.339 7.24 2.32 23.454.29 25.481 0 .869 4.93 1.738 9.57 2.606 13.92 1.738 8.99 2.896 17.4 3.764 24.36h6.66c-1.158-7.25-2.606-15.95-4.633-25.52-.868-4.93-2.027-10.15-3.185-15.66 1.158-.58 8.108-3.19 14.188-6.67 5.212 5.8 19.111 12.47 20.848 13.34-1.737 4.64-3.764 8.99-5.501 13.05-3.475 7.83-6.66 15.08-9.555 21.17h7.238c2.606-5.51 5.212-11.89 8.108-18.85 2.027-4.64 3.764-9.57 5.791-14.79 2.027.29 17.953 3.77 25.481 2.03 6.66-1.45 15.057-5.51 17.953-12.18 2.895-6.67.289-14.789-6.95-17.109-9.845-3.19-24.902 7.83-30.403 15.369-.29.58-3.185 5.51-5.212 8.99.868-2.03 1.448-4.06 2.316-6.38 1.448-4.35 2.896-8.699 4.633-13.339.579-2.32 1.448-4.64 2.027-6.96.869-2.32 1.158-4.93 1.737-7.25 1.448-5.51 2.317-11.31 3.475-17.4 3.764 1.45 17.084 6.09 24.323 5.51 6.949-.58 15.636-2.9 19.69-9.28 4.053-6.09 2.606-14.5-4.054-17.979-9.266-4.93-25.771 4.059-32.43 10.729-.29.29-4.633 5.8-6.95 8.7.579-3.48 1.158-6.96 1.448-10.73 1.158-10.439 2.316-20.879 3.185-31.319l.869-9.57c1.448.58 17.084 6.38 24.902 5.8 6.949-.58 15.636-2.9 19.689-9.28 4.054-6.09 2.606-14.5-4.053-17.98-9.266-4.929-25.771 4.06-32.431 10.73-.579.58-6.659 8.12-8.107 10.15.868-6.96 1.448-14.21 2.606-20.88 1.448-9.569 3.474-18.849 6.08-27.549.58.29 17.084 6.38 25.192 5.8 6.949-.58 15.636-2.9 19.69-9.28 4.053-6.09 2.606-14.5-4.054-17.98-9.266-4.93-25.771 4.06-32.43 10.73-.58.58-6.95 8.7-8.108 10.15.29-.58.29-1.16.29-1.74 2.895-9.28 6.949-17.98 11.003-26.1 2.316-4.64 4.922-8.99 7.528-13.05 2.896 1.45 16.505 8.12 23.744 8.41 6.949.29 15.925-1.16 20.558-6.96 4.633-5.51 4.054-14.21-2.027-18.269-8.686-5.8-26.06 1.16-33.588 6.96l-6.66 6.67c1.158-1.74 2.316-3.77 3.475-5.51a194.617 194.617 0 0 1 12.74-17.4c2.317-2.9 4.343-5.51 6.37-7.83 3.765 0 18.532-.58 24.902-3.48 6.37-2.9 13.609-8.41 15.057-15.66 1.448-6.96-2.895-14.5-10.424-15.08-10.424-1.16-22.585 13.05-26.35 21.75-.289.87-4.053 12.76-4.053 12.76h.289c-2.027 2.32-4.054 4.64-6.37 7.25-4.054 4.93-8.687 10.73-13.03 17.11a187.705 187.705 0 0 0-13.609 21.749c-4.343 8.12-8.397 16.82-11.582 26.1v.29c0-3.19 0-11.6-.29-12.18-1.158-9.28-8.976-26.39-19.111-28.42-7.528-1.45-13.609 4.35-14.188 11.6-.579 7.25 4.633 14.79 9.845 19.43 5.791 5.22 22.006 10.44 23.454 10.73-2.895 8.99-5.212 18.56-6.949 28.419-.869 5.51-1.738 11.31-2.606 16.82v-5.22c-1.158-9.28-8.976-26.389-19.111-28.419-7.528-1.45-13.609 4.35-14.188 11.6-.579 7.249 4.633 14.789 9.845 19.429 5.212 4.64 19.11 9.28 22.585 10.44-.289 2.32-.579 4.35-.869 6.67-1.158 10.44-2.316 20.88-4.053 31.029-.58 3.48-1.159 7.25-1.738 10.73v-4.64c-1.158-9.28-8.976-26.389-19.11-28.419-7.529-1.45-13.61 4.35-14.189 11.6-.579 7.249 4.633 14.789 9.845 19.429 4.923 4.35 17.663 8.99 22.007 10.15-.869 3.48-1.448 7.25-2.317 10.73-.579 2.32-1.158 4.64-2.027 6.96-.869 2.32-1.448 4.64-2.316 6.96-1.448 4.35-3.185 8.699-4.923 13.049-1.158 2.9-2.316 5.8-3.474 8.41.579-3.48 1.447-10.73 1.447-11.31 0-6.089-2.027-16.239-6.37-23.199 0-.87 0-1.74-.289-2.61-1.159-7.25-7.818-12.47-15.057-10.44-10.135 2.61-16.505 20.3-17.084 29.58 0 .58.289 6.669.579 10.439-.579-2.32-.869-4.35-1.448-6.67-1.158-4.349-2.316-8.989-3.474-13.629-.58-2.32-1.448-4.64-2.027-6.96-.579-2.32-1.738-4.64-2.317-6.96-2.027-5.51-4.343-11.02-6.66-16.24 3.765-.87 17.663-4.35 23.165-8.7 5.501-4.35 11.293-11.309 11.293-18.559 0-7.25-5.792-13.34-13.32-12.76-10.424 1.16-19.4 17.69-21.138 26.68 0 .579-.868 7.249-.868 11.019-1.448-3.19-2.896-6.38-4.633-9.86-4.633-9.279-9.555-18.559-14.478-27.839l-4.343-8.7c1.447-.29 17.952-4.06 24.033-8.99 5.501-4.35 11.293-11.31 11.293-18.559 0-7.25-5.792-13.34-13.32-12.76-10.424 1.16-19.4 17.69-21.138 26.679 0 .58-.868 10.44-1.158 12.76-2.895-5.8-6.08-12.18-8.976-18.27-4.054-8.699-7.529-17.689-10.134-26.389.579-.29 17.952-4.06 24.322-8.99 5.502-4.35 11.293-11.31 11.293-18.56 0-7.25-5.791-13.34-13.32-12.76-10.424 1.16-19.4 17.69-21.137 26.68-.29.58-1.158 11.02-1.158 13.05-.29-.58-.29-1.16-.58-1.45-2.895-9.28-4.343-18.85-5.212-27.84-.579-5.22-.868-10.15-.868-15.08 3.185-.29 18.242-2.32 24.612-6.09 6.08-3.48 12.45-9.859 13.32-17.109.868-7.25-4.344-13.92-11.872-13.92-10.424 0-21.138 15.37-24.033 24.36-.29.58-1.159 5.51-2.027 9.28v-6.67c0-7.83.579-15.08.868-21.46.29-3.77.58-6.96 1.159-9.86 2.895-2.03 15.056-10.73 18.82-16.82 3.475-6.09 6.66-14.499 3.765-21.459-2.606-6.67-10.424-10.44-17.084-6.96-9.266 4.93-11.582 23.49-10.134 32.77 0 .87 3.764 13.05 3.764 12.76h.29c-.29 2.9-.87 6.09-1.159 9.57-.579 6.38-1.158 13.629-1.448 21.459-.29 7.83-.29 16.53.58 25.519.868 8.99 2.026 18.56 4.633 28.13v.29c-1.738-2.61-6.37-9.57-6.95-10.15-6.08-6.96-22.006-17.11-31.561-13.05-6.95 2.9-8.977 11.31-5.502 17.69 3.475 6.38 11.872 9.57 18.821 10.73Z"/><path fill="#81637D" fill-opacity=".06" d="M201.289 89.136c.29 0 3.185-12.18 3.475-13.05 1.158-9.28-1.738-27.84-11.003-32.479-6.66-3.19-14.189.58-16.795 7.54-2.606 6.96.58 15.37 4.344 21.17 4.633 6.96 19.979 16.82 19.979 16.82ZM316.243 166.564c4.922 2.03 17.084 1.74 17.084 1.74s-2.606-7.83-2.896-8.41c-2.606-5.51-11.003-14.789-17.663-13.629-4.922.58-7.528 5.509-6.37 10.149.869 4.64 5.791 8.12 9.845 10.15Z"/><path fill="#81637D" fill-opacity=".06" d="M320.297 201.364c5.212.87 15.925-2.32 16.794-2.61 1.737 6.09 4.054 12.18 6.37 17.98 1.448 3.48 3.185 6.96 4.633 10.15-.869-1.45-1.737-2.61-2.027-2.9-4.054-4.64-14.478-11.31-20.848-8.41-4.633 2.03-5.791 7.25-3.474 11.6 2.316 4.35 7.818 6.38 12.45 6.96 4.633.579 13.899-1.74 16.216-2.61.579 1.16 1.158 2.61 2.026 3.769a550.989 550.989 0 0 1 9.266 18.56c1.158 2.03 2.027 4.35 2.896 6.38-.869-1.16-1.738-2.32-1.738-2.61-4.053-4.64-14.477-11.31-20.848-8.41-4.632 2.03-5.791 7.25-3.474 11.6 2.316 4.35 7.818 6.38 12.451 6.96 4.343.58 13.03-1.45 15.925-2.32.869 2.32 1.738 4.64 2.606 6.67.579 1.45 1.158 2.9 1.448 4.64.29 1.45.869 3.19 1.158 4.64.579 2.9 1.448 6.09 2.027 8.7.579 2.029.869 3.769 1.158 5.799-.868-2.03-2.895-6.379-3.185-6.669-3.185-5.22-12.74-13.34-19.11-11.6-4.923 1.16-6.95 6.38-5.212 10.73 1.737 4.639 6.949 7.539 11.292 8.699 4.923 1.45 15.347 0 16.794 0 .58 3.19 1.159 6.38 1.738 9.28 1.158 6.09 1.737 11.31 2.606 15.95h4.343c-.869-4.93-1.737-10.44-2.895-16.82-.58-3.19-1.448-6.67-2.317-10.15.869-.29 5.212-2.03 9.266-4.349 3.475 3.769 12.451 8.119 13.609 8.699-1.158 2.9-2.316 5.8-3.764 8.7-2.317 5.22-4.343 9.86-6.37 13.92h4.922c1.737-3.77 3.475-7.83 5.212-12.47 1.158-3.19 2.606-6.38 3.764-9.86 1.159.29 11.872 2.32 16.795 1.45 4.343-.87 9.844-3.48 11.871-7.83 2.027-4.349.29-9.569-4.343-11.309-6.37-2.32-16.505 5.22-19.979 10.149-.29.29-2.317 3.77-3.475 5.8.579-1.45 1.158-2.61 1.448-4.06 1.158-2.899 2.027-5.799 2.895-8.699.579-1.45.869-2.9 1.448-4.64.579-1.45.869-3.19 1.158-4.64.869-3.77 1.738-7.54 2.317-11.31 2.606.87 11.292 4.06 15.925 3.77 4.633-.29 10.424-2.03 13.03-6.09 2.606-4.06 1.738-9.57-2.606-11.89-6.08-3.19-17.083 2.61-21.427 6.96-.289.29-2.895 3.77-4.633 5.51.29-2.32.869-4.64 1.159-6.96.868-6.67 1.447-13.63 2.026-20.59.29-2.029.58-4.349.58-6.379.868.29 11.292 4.35 16.504 3.77 4.633-.29 10.424-2.03 13.03-6.09 2.606-4.06 1.738-9.57-2.606-11.89-6.08-3.19-17.084 2.61-21.427 6.96-.289.29-4.343 5.22-5.212 6.67l1.737-13.92c.869-6.38 2.317-12.47 4.054-18.27.29.29 11.293 4.35 16.505 3.77 4.633-.29 10.424-2.03 13.03-6.09 2.606-4.06 1.737-9.57-2.606-11.89-6.081-3.19-17.084 2.61-21.427 6.96-.29.29-4.633 5.8-5.212 6.67 0-.29.289-.58.289-1.16 2.027-6.09 4.344-11.89 7.239-17.11 1.448-3.189 3.185-5.799 4.923-8.699 2.027.87 11.003 5.22 15.636 5.51 4.633.29 10.424-.87 13.609-4.64 2.895-3.77 2.606-9.28-1.448-11.89-5.791-3.77-17.084.87-22.006 4.64l-4.344 4.35c.869-1.16 1.448-2.61 2.317-3.77 2.895-4.35 5.791-8.12 8.397-11.31 1.448-1.74 2.896-3.48 4.054-5.22 2.316 0 12.161-.29 16.215-2.32s8.976-5.51 9.845-10.44c.869-4.64-1.737-9.57-6.66-9.86-6.949-.87-15.057 8.7-17.373 14.21-.29.58-2.606 8.41-2.606 8.41h.289c-1.158 1.45-2.606 3.19-4.053 4.93-2.607 3.19-5.792 6.96-8.687 11.31-2.896 4.35-6.081 8.99-8.976 14.209a101.84 101.84 0 0 0-7.529 17.11v.29-8.12c-.869-6.09-5.791-17.399-12.74-18.559-4.923-.87-8.977 2.9-9.266 7.54-.29 4.929 3.185 9.569 6.37 12.759 3.764 3.48 14.478 6.67 15.347 6.96-2.027 6.09-3.475 12.18-4.633 18.56-.579 3.77-1.159 7.25-1.738 11.02v-3.48c-.868-6.09-5.791-17.4-12.74-18.56-4.923-.87-8.976 2.9-9.266 7.54-.289 4.93 3.185 9.57 6.37 12.76 3.475 3.19 12.451 6.09 14.768 6.96-.29 1.45-.29 2.9-.579 4.35-.869 6.959-1.738 13.629-2.606 20.589-.29 2.32-.869 4.64-1.159 6.96v-2.9c-.868-6.09-5.791-17.4-12.74-18.56-4.923-.87-8.976 2.9-9.266 7.54-.289 4.93 3.185 9.57 6.37 12.76 3.185 2.9 11.583 5.8 14.478 6.67-.579 2.32-.869 4.64-1.448 6.96-.579 1.45-.868 3.19-1.158 4.64-.579 1.45-.869 2.9-1.448 4.64-1.158 2.9-2.027 5.8-3.185 8.41-.868 2.029-1.448 3.769-2.316 5.509.289-2.32.868-6.959.868-7.249 0-4.06-1.447-10.73-4.343-15.37v-1.74c-.869-4.64-5.212-8.12-9.845-6.96-6.66 1.74-10.713 13.34-11.003 19.43 0 .29.29 4.35.29 6.67l-.869-4.35c-.579-2.9-1.448-5.8-2.317-8.99-.579-1.45-.868-2.9-1.447-4.64-.29-1.45-1.158-3.19-1.738-4.64-1.447-3.48-2.895-7.25-4.343-10.73 2.606-.58 11.582-2.9 15.347-5.8 3.764-2.9 7.528-7.25 7.528-12.18 0-4.64-3.764-8.989-8.687-8.409-6.949.87-12.74 11.599-13.898 17.689 0 .29-.58 4.64-.58 7.25-.868-2.03-2.026-4.35-2.895-6.38l-9.555-18.269c-.869-1.74-2.027-3.77-2.896-5.51.869-.29 11.872-2.61 15.926-5.8 3.764-2.9 7.528-7.25 7.528-12.18 0-4.64-3.764-8.99-8.687-8.41-6.949.87-12.74 11.6-13.898 17.69 0 .58-.579 6.67-.869 8.41-2.027-4.06-4.343-8.41-6.081-12.47-2.606-5.8-4.922-11.6-6.659-17.4.289 0 11.871-2.61 15.925-5.8 3.764-2.9 7.529-7.25 7.529-12.18 0-4.639-3.765-8.989-8.687-8.409-6.949.87-12.741 11.599-13.899 17.689 0 .58-.579 7.25-.868 8.41 0-.29-.29-.58-.29-1.16-1.737-6.09-2.896-12.47-3.475-18.27-.289-3.479-.579-6.669-.579-9.859 2.027-.29 12.162-1.45 16.215-4.06 4.054-2.32 8.108-6.38 8.687-11.31.579-4.64-2.896-9.28-7.818-9.28-6.949 0-13.899 10.15-15.926 15.95 0 .29-.868 3.77-1.158 6.09v-4.35c0-5.22.29-9.86.579-14.21.29-2.32.579-4.64.579-6.67 2.027-1.45 9.845-6.96 12.451-11.02 2.317-3.77 4.344-9.57 2.606-13.919-1.737-4.35-6.659-6.96-11.292-4.64-6.081 3.19-7.818 15.369-6.66 21.459 0 .58 2.316 8.41 2.606 8.41-.29 2.03-.579 4.06-.869 6.38-.289 4.35-.868 8.99-.868 14.21 0 5.22 0 10.73.289 16.819.579 6.09 1.448 12.18 3.185 18.56v.29c-1.158-1.74-4.343-6.38-4.633-6.67-4.053-4.64-14.477-11.31-20.848-8.41-4.633 2.03-5.791 7.25-3.474 11.6 1.158 5.8 6.659 8.12 11.003 8.7Z"/><path fill="#81637D" fill-opacity=".06" d="M437.856 169.175s2.317-8.12 2.317-8.41c.869-6.09-1.158-18.269-7.239-21.169-4.343-2.03-9.555.58-11.003 4.929-1.737 4.64.579 10.15 2.895 13.92 2.896 4.35 13.03 10.73 13.03 10.73ZM771.135 177.005c4.633 2.03 15.925 1.74 15.925 1.74s-2.316-7.25-2.606-7.83c-2.316-5.22-10.134-13.629-16.504-12.759-4.633.58-6.95 5.219-6.081 9.569.869 4.35 5.212 7.83 9.266 9.28Z"/><path fill="#81637D" fill-opacity=".06" d="M774.9 209.775c4.632.58 14.767-2.32 15.636-2.32 1.447 5.509 3.764 11.309 6.08 16.819l4.344 9.57c-.869-1.45-1.738-2.61-1.738-2.61-3.764-4.35-13.609-10.44-19.4-7.83-4.343 1.74-5.502 6.96-3.475 10.73 2.317 4.06 7.239 5.8 11.583 6.67 4.343.58 12.74-1.74 15.056-2.32l1.738 3.48c2.895 5.8 5.791 11.6 8.397 17.4l2.606 6.09c-.869-1.16-1.448-2.32-1.737-2.32-3.765-4.35-13.61-10.44-19.401-7.83-4.343 1.74-5.501 6.96-3.474 10.73 2.316 4.059 7.239 5.799 11.582 6.669 4.054.58 12.161-1.45 14.767-2.32.869 2.03 1.738 4.06 2.317 6.38.579 1.45.868 2.9 1.448 4.35.289 1.45.868 2.9 1.158 4.35.579 2.61 1.447 5.51 2.027 8.12.289 1.74.868 3.77 1.158 5.51-.869-2.03-2.896-5.8-2.896-6.38-2.895-4.93-11.872-12.47-17.952-10.73-4.344 1.16-6.37 6.09-4.923 10.15 1.448 4.35 6.371 6.96 10.424 8.12 4.344 1.45 14.478 0 15.636 0l1.738 8.7c.868 5.51 1.737 10.73 2.316 15.08h4.054c-.579-4.64-1.737-9.86-2.896-15.66-.579-2.9-1.158-6.09-2.026-9.57.868-.29 4.922-2.03 8.686-4.06 3.185 3.48 11.582 7.83 12.741 8.12-1.159 2.9-2.317 5.51-3.475 8.12-2.027 4.93-4.054 9.28-5.791 13.05h4.633c1.448-3.48 3.185-7.25 4.922-11.6 1.158-2.9 2.317-5.8 3.475-8.99 1.158.29 11.003 2.32 15.636 1.16 4.054-.87 9.266-3.19 11.003-7.54 1.737-4.06.29-8.99-4.054-10.44-6.08-2.03-15.346 4.93-18.821 9.57-.289.29-2.027 3.48-3.185 5.51.579-1.16.869-2.61 1.448-3.77.868-2.61 1.737-5.22 2.895-8.12.29-1.45.869-2.9 1.159-4.35.579-1.45.868-2.9 1.158-4.35.868-3.48 1.448-6.96 2.027-10.73 2.316.87 10.424 3.77 14.767 3.48 4.343-.29 9.555-1.74 12.161-5.51 2.317-3.769 1.448-8.989-2.606-11.019-5.791-2.9-15.925 2.61-19.979 6.38-.29.29-2.896 3.48-4.343 5.219.289-2.029.579-4.349.868-6.379.869-6.38 1.448-12.76 2.027-19.14.29-2.03.29-4.06.579-5.8.869.29 10.424 4.06 15.347 3.48 4.343-.29 9.555-1.74 12.161-5.51 2.317-3.77 1.448-8.99-2.606-11.02-5.791-2.9-15.925 2.61-19.979 6.38-.29.29-4.054 4.93-4.923 6.09.579-4.35.869-8.7 1.738-12.76.868-5.8 2.027-11.6 3.764-16.819.289 0 10.424 4.059 15.346 3.769 4.344-.29 9.556-1.739 12.162-5.509 2.316-3.77 1.448-8.99-2.606-11.02-5.791-2.9-15.926 2.61-19.98 6.38-.289.29-4.343 5.22-4.922 6.38 0-.29.289-.58.289-.87 1.738-5.8 4.054-11.02 6.66-15.95 1.448-2.9 2.896-5.51 4.633-8.12 1.737.87 10.135 4.93 14.478 5.22 4.343.29 9.845-.87 12.451-4.35 2.895-3.48 2.606-8.7-1.448-11.31-5.212-3.48-15.925.58-20.558 4.35-.29.29-2.606 2.32-4.054 4.06.579-1.16 1.448-2.32 2.027-3.48 2.606-4.06 5.501-7.54 7.818-10.73 1.448-1.74 2.606-3.19 3.764-4.64 2.316 0 11.293-.29 15.346-2.03 3.765-1.74 8.398-5.22 9.266-9.569.869-4.35-1.737-8.7-6.37-9.28-6.37-.58-13.899 8.12-16.215 13.339-.29.58-2.606 7.83-2.317 7.83-1.158 1.45-2.606 2.9-3.764 4.35-2.606 3.19-5.212 6.67-8.107 10.44-2.896 4.06-5.792 8.41-8.398 13.34s-5.212 10.15-7.238 15.95v.29-7.54c-.869-5.8-5.502-16.24-11.872-17.4-4.633-.87-8.397 2.61-8.687 7.25-.289 4.64 2.896 8.99 6.081 11.89 3.474 3.19 13.609 6.38 14.188 6.67-1.737 5.509-3.185 11.309-4.343 17.399-.579 3.48-1.158 6.96-1.448 10.44v-3.19c-.869-5.8-5.502-16.24-11.872-17.4-4.633-.87-8.397 2.61-8.687 7.25-.289 4.64 2.896 8.99 6.081 11.89 3.185 2.9 11.582 5.8 13.899 6.38-.29 1.45-.29 2.61-.579 4.06-.869 6.38-1.448 12.76-2.317 19.14-.289 2.32-.579 4.35-1.158 6.669v-2.899c-.869-5.8-5.502-16.24-11.872-17.4-4.633-.87-8.397 2.61-8.686 7.25-.29 4.64 2.895 8.99 6.08 11.89 3.185 2.609 10.714 5.509 13.609 6.379-.579 2.32-.868 4.35-1.447 6.67-.29 1.45-.58 2.9-1.159 4.35-.579 1.45-.868 2.9-1.447 4.06-.869 2.61-2.027 5.51-2.896 7.83-.579 1.74-1.448 3.48-2.027 5.22.29-2.32.869-6.38.869-6.96 0-3.77-1.158-9.86-4.054-14.21v-1.74c-.579-4.35-4.922-7.54-9.266-6.38-6.08 1.74-10.134 12.47-10.424 18.27 0 .29.29 4.06.29 6.38-.29-1.45-.579-2.61-.869-4.06-.579-2.61-1.448-5.51-2.027-8.41-.289-1.45-.868-2.9-1.158-4.35-.29-1.45-.869-2.9-1.448-4.35-1.158-3.48-2.606-6.67-4.054-9.859 2.317-.58 10.714-2.61 14.189-5.22 3.474-2.61 6.949-6.96 6.949-11.31 0-4.35-3.475-8.12-8.108-7.83-6.37.58-11.871 10.73-13.03 16.53 0 .29-.579 4.35-.579 6.67-.868-2.03-1.737-4.06-2.895-6.09a484.637 484.637 0 0 0-8.977-17.11l-2.606-5.22c.869-.29 11.004-2.61 14.768-5.51 3.475-2.61 6.949-6.96 6.949-11.31 0-4.35-3.474-8.12-8.107-7.83-6.371.58-11.872 10.73-13.03 16.53 0 .29-.58 6.38-.58 7.83a217.488 217.488 0 0 1-5.791-11.6c-2.316-5.22-4.633-10.73-6.37-16.239.29 0 11.003-2.61 14.767-5.51 3.475-2.61 6.95-6.96 6.95-11.31 0-4.35-3.475-8.12-8.108-7.83-6.37.58-11.872 10.73-13.03 16.53 0 .58-.579 6.67-.579 7.83 0-.29-.289-.58-.289-.87-1.738-5.8-2.606-11.6-3.186-17.11-.289-3.19-.579-6.09-.579-9.28 2.027-.29 11.293-1.45 15.057-3.77 3.764-2.32 7.529-6.09 8.108-10.44.579-4.35-2.606-8.7-7.239-8.7-6.37 0-13.03 9.57-14.767 14.79 0 .29-.869 3.48-1.159 5.8v-4.06c0-4.93.29-9.28.579-13.05.29-2.32.29-4.35.58-6.09 1.737-1.16 9.265-6.379 11.582-10.149 2.316-3.77 4.054-8.99 2.316-13.05-1.737-4.06-6.37-6.38-10.424-4.35-5.791 2.9-7.239 14.5-6.37 20.01 0 .58 2.316 7.829 2.316 7.829-.289 1.74-.579 3.77-.579 5.8-.289 4.06-.868 8.41-.868 13.34s0 10.15.289 15.66c.579 5.51 1.158 11.31 2.896 17.4v.29c-.869-1.45-4.054-5.8-4.344-6.09-3.764-4.35-13.609-10.44-19.4-7.83-4.343 1.74-5.501 6.96-3.474 10.73 3.764.87 8.976 2.61 13.03 3.48Z"/><path fill="#81637D" fill-opacity=".06" d="M884.352 179.614s2.027-7.539 2.027-7.829c.868-5.8-1.159-17.11-6.66-19.72-4.054-2.03-8.687.29-10.424 4.64-1.448 4.35.289 9.57 2.606 13.05 3.185 3.77 12.451 9.859 12.451 9.859ZM1002.49 85.076c7.53 3.19 25.77 2.9 25.77 2.9.29 0-4.05-11.89-4.34-12.76-4.06-8.41-16.8-22.33-26.931-20.88-7.528.87-11.582 8.41-9.845 15.37 1.448 7.25 8.976 12.47 15.346 15.37Z"/><path fill="#81637D" fill-opacity=".06" d="M1008.57 138.146c7.82 1.159 24.03-3.48 25.48-4.06 2.61 9.279 6.08 18.269 9.85 27.549 2.31 5.22 4.63 10.44 7.24 15.66-1.45-2.32-2.9-4.06-3.19-4.35-6.08-6.96-22.01-17.11-31.56-13.05-6.95 2.9-8.98 11.31-5.5 17.69 3.47 6.38 12.16 9.57 18.82 10.73 6.95 1.16 20.85-2.61 24.61-3.77.87 2.03 2.03 4.06 2.9 5.8 4.63 9.569 9.55 18.849 13.9 28.129 1.44 3.19 2.89 6.67 4.34 9.86-1.45-2.03-2.32-3.48-2.61-3.77-6.08-6.96-22-17.11-31.56-13.05-6.95 2.9-8.98 11.31-5.5 17.69 3.47 6.38 12.16 9.57 18.82 10.73 6.66.87 19.69-2.32 24.03-3.48 1.45 3.48 2.61 6.96 3.77 10.15.87 2.32 1.74 4.64 2.31 6.959.58 2.32 1.16 4.64 2.03 6.96 1.16 4.35 2.32 8.99 3.19 13.34.58 2.9 1.15 6.09 1.73 8.99-1.44-3.19-4.63-9.57-4.92-10.15-4.92-7.83-19.11-20.299-29.24-17.69-7.24 1.74-10.43 9.86-8.11 16.53 2.6 6.96 10.42 11.31 17.08 13.34 7.24 2.32 23.46.29 25.48 0 .87 4.93 1.74 9.57 2.61 13.92 1.74 8.99 2.89 17.399 3.76 24.359h6.66c-1.15-7.25-2.6-15.949-4.63-25.519-.87-4.93-2.03-10.15-3.18-15.66 1.15-.58 8.1-3.19 14.18-6.67 5.22 5.8 19.11 12.47 20.85 13.34-1.74 4.64-3.76 8.99-5.5 13.05-3.47 7.83-6.66 15.079-9.56 21.169h7.24c2.61-5.51 5.22-11.889 8.11-18.849 2.03-4.64 3.77-9.57 5.79-14.79 2.03.29 17.95 3.77 25.48 2.03 6.66-1.45 15.06-5.51 17.96-12.18 2.89-6.67.29-14.79-6.95-17.11-9.85-3.19-24.91 7.83-30.41 15.37-.29.58-3.18 5.51-5.21 8.99.87-2.03 1.45-4.06 2.32-6.38 1.45-4.35 2.89-8.7 4.63-13.34.58-2.32 1.45-4.64 2.03-6.96.87-2.32 1.16-4.93 1.73-7.249 1.45-5.51 2.32-11.31 3.48-17.4 3.76 1.45 17.08 6.09 24.32 5.51 6.95-.58 15.64-2.9 19.69-9.28 4.06-6.09 2.61-14.5-4.05-17.98-9.27-4.93-25.77 4.06-32.43 10.73-.29.29-4.64 5.8-6.95 8.7.58-3.48 1.16-6.96 1.45-10.73 1.15-10.44 2.31-20.88 3.18-31.319l.87-9.57c1.45.58 17.08 6.38 24.9 5.8 6.95-.58 15.64-2.9 19.69-9.28 4.06-6.09 2.61-14.5-4.05-17.98-9.27-4.93-25.77 4.06-32.43 10.73-.58.58-6.66 8.12-8.11 10.15.87-6.96 1.45-14.21 2.61-20.88 1.44-9.57 3.47-18.85 6.08-27.549.58.29 17.08 6.38 25.19 5.8 6.95-.58 15.63-2.9 19.69-9.28 4.05-6.09 2.6-14.5-4.06-17.98-9.26-4.93-25.77 4.06-32.43 10.73-.58.58-6.95 8.7-8.1 10.15.29-.58.29-1.16.29-1.74 2.89-9.28 6.95-17.98 11-26.1 2.32-4.64 4.92-8.99 7.53-13.05 2.89 1.45 16.5 8.12 23.74 8.41 6.95.29 15.93-1.16 20.56-6.96 4.63-5.51 4.05-14.21-2.03-18.27-8.68-5.8-26.06 1.16-33.59 6.96-.29.29-4.05 4.06-6.66 6.67 1.16-1.74 2.32-3.77 3.48-5.51 4.34-6.67 8.69-12.47 12.74-17.4 2.32-2.9 4.34-5.51 6.37-7.83 3.76 0 18.53-.58 24.9-3.479 6.37-2.9 13.61-8.41 15.06-15.66 1.45-6.96-2.9-14.5-10.43-15.08-10.42-1.16-22.58 13.05-26.35 21.75-.28.87-4.05 12.76-4.05 12.76h.29c-2.03 2.32-4.05 4.64-6.37 7.25-4.05 4.93-8.69 10.73-13.03 17.11-4.63 6.38-9.27 13.63-13.61 21.749-4.34 8.12-8.4 16.82-11.58 26.1v.29c0-3.19 0-11.6-.29-12.18-1.16-9.28-8.98-26.39-19.11-28.42-7.53-1.45-13.61 4.35-14.19 11.6-.58 7.25 4.63 14.79 9.85 19.43 5.79 5.22 22 10.44 23.45 10.73-2.9 8.989-5.21 18.559-6.95 28.419-.87 5.51-1.74 11.31-2.61 16.82v-5.22c-1.15-9.28-8.97-26.39-19.11-28.42-7.53-1.45-13.61 4.35-14.18 11.6-.58 7.25 4.63 14.79 9.84 19.43 5.21 4.64 19.11 9.28 22.59 10.44-.29 2.32-.58 4.35-.87 6.67-1.16 10.439-2.32 20.879-4.06 31.029-.58 3.48-1.16 7.25-1.73 10.73v-4.64c-1.16-9.28-8.98-26.39-19.12-28.42-7.52-1.45-13.6 4.35-14.18 11.6-.58 7.25 4.63 14.79 9.84 19.43 4.92 4.35 17.66 8.99 22.01 10.15-.87 3.48-1.45 7.25-2.32 10.73-.58 2.319-1.16 4.639-2.03 6.959-.86 2.32-1.44 4.64-2.31 6.96-1.45 4.35-3.19 8.7-4.92 13.05-1.16 2.9-2.32 5.8-3.48 8.41.58-3.48 1.45-10.73 1.45-11.31 0-6.09-2.03-16.24-6.37-23.199 0-.87 0-1.74-.29-2.61-1.16-7.25-7.82-12.47-15.06-10.44-10.13 2.61-16.5 20.299-17.08 29.579 0 .58.29 6.67.58 10.44-.58-2.32-.87-4.35-1.45-6.67-1.16-4.35-2.32-8.99-3.48-13.63-.57-2.32-1.44-4.64-2.02-6.959-.58-2.32-1.74-4.64-2.32-6.96-2.03-5.51-4.34-11.02-6.66-16.24 3.77-.87 17.66-4.35 23.17-8.7 5.5-4.35 11.29-11.31 11.29-18.56 0-7.249-5.79-13.339-13.32-12.759-10.42 1.16-19.4 17.689-21.14 26.679 0 .58-.87 7.25-.87 11.02-1.44-3.19-2.89-6.38-4.63-9.86-4.63-9.28-9.56-18.56-14.48-27.839-1.45-2.9-2.89-5.8-4.34-8.7 1.45-.29 17.95-4.06 24.03-8.99 5.5-4.35 11.29-11.31 11.29-18.56 0-7.25-5.79-13.339-13.31-12.76-10.43 1.16-19.41 17.69-21.14 26.68 0 .58-.87 10.44-1.16 12.76-3.19-6.38-6.37-12.47-9.27-18.85-4.05-8.7-7.52-17.69-10.13-26.389.58-.29 17.95-4.06 24.32-8.99 5.5-4.35 11.29-11.31 11.29-18.56 0-7.25-5.79-13.34-13.32-12.76-10.42 1.16-19.4 17.69-21.13 26.68-.29.58-1.16 11.02-1.16 13.05-.29-.58-.29-1.16-.58-1.45-2.9-9.28-4.34-18.85-5.21-27.84-.58-5.22-.87-10.15-.87-15.08 3.18-.29 18.24-2.32 24.61-6.09 6.08-3.48 12.45-9.86 13.32-17.11.87-7.25-4.34-13.919-11.87-13.919-10.42 0-21.14 15.37-24.03 24.36-.29.58-1.16 5.51-2.03 9.28v-6.67c0-7.83.58-15.08.87-21.46.29-3.77.58-6.96 1.16-9.86 2.89-2.03 15.05-10.73 18.82-16.82 3.47-6.09 6.66-14.5 3.76-21.46-2.6-6.67-10.42-10.44-17.08-6.96-9.27 4.93-11.58 23.49-10.14 32.77 0 .87 3.77 13.05 3.77 12.76h.29c-.29 2.9-.87 6.09-1.16 9.57-.58 6.38-1.16 13.63-1.45 21.46-.29 7.83-.29 16.53.58 25.519.87 8.99 2.03 18.56 4.63 28.13v.29c-1.73-2.61-6.37-9.57-6.95-10.15-6.08-6.96-22-17.11-31.558-13.05-6.949 2.9-8.976 11.31-5.501 17.69 3.764 6.96 12.449 10.15 19.109 11.31Z"/><path fill="#81637D" fill-opacity=".06" d="M1187.52 89.136c.29 0 3.18-12.18 3.47-13.05 1.16-9.28-1.74-27.839-11-32.479-6.66-3.19-14.19.58-16.8 7.54-2.6 6.96.58 15.37 4.35 21.17 4.34 6.96 19.98 16.82 19.98 16.82ZM1664.13 85.076c7.52 3.19 25.77 2.9 25.77 2.9.29 0-4.06-11.89-4.35-12.76-4.05-8.41-16.79-22.33-26.93-20.88-7.52.87-11.58 8.41-9.84 15.37 1.74 7.25 8.98 12.47 15.35 15.37Z"/><path fill="#81637D" fill-opacity=".06" d="M1670.5 138.146c7.81 1.159 24.03-3.48 25.48-4.06 2.6 9.279 6.08 18.269 9.84 27.549 2.32 5.22 4.64 10.44 7.24 15.66-1.45-2.32-2.89-4.06-3.18-4.35-6.08-6.96-22.01-17.11-31.57-13.05-6.94 2.9-8.97 11.31-5.5 17.69 3.48 6.38 12.16 9.57 18.82 10.73 6.95 1.16 20.85-2.61 24.62-3.77.86 2.03 2.02 4.06 2.89 5.8 4.63 9.569 9.56 18.849 13.9 28.129 1.45 3.19 2.9 6.67 4.34 9.86-1.44-2.03-2.31-3.48-2.6-3.77-6.08-6.96-22.01-17.11-31.56-13.05-6.95 2.9-8.98 11.31-5.51 17.69 3.48 6.38 12.17 9.57 18.83 10.73 6.66.87 19.69-2.32 24.03-3.48 1.45 3.48 2.6 6.96 3.76 10.15.87 2.32 1.74 4.64 2.32 6.959.58 2.32 1.16 4.64 2.03 6.96 1.15 4.35 2.31 8.99 3.18 13.34.58 2.9 1.16 6.09 1.74 8.99-1.45-3.19-4.63-9.57-4.92-10.15-4.93-7.83-19.11-20.299-29.25-17.69-7.24 1.74-10.42 9.86-8.11 16.53 2.61 6.96 10.43 11.31 17.09 13.34 7.24 2.32 23.45.29 25.48 0 .87 4.93 1.74 9.57 2.6 13.92 1.74 8.99 2.9 17.399 3.77 24.359h6.66c-1.16-7.25-2.61-15.949-4.63-25.519-.87-4.93-2.03-10.15-3.19-15.66 1.16-.58 8.11-3.19 14.19-6.67 5.21 5.8 19.11 12.47 20.85 13.34-1.74 4.64-3.77 8.99-5.5 13.05-3.48 7.83-6.66 15.079-9.56 21.169h7.24c2.6-5.51 5.21-11.889 8.11-18.849 2.02-4.64 3.76-9.57 5.79-14.79 2.02.29 17.95 3.77 25.48 2.03 6.66-1.45 15.06-5.51 17.95-12.18 2.9-6.67.29-14.79-6.95-17.11-9.84-3.19-24.9 7.83-30.4 15.37-.29.58-3.19 5.51-5.21 8.99.86-2.03 1.44-4.06 2.31-6.38 1.45-4.35 2.9-8.7 4.64-13.34.57-2.32 1.44-4.64 2.02-6.96.87-2.32 1.16-4.93 1.74-7.249 1.45-5.51 2.32-11.31 3.47-17.4 3.77 1.45 17.09 6.09 24.33 5.51 6.95-.58 15.63-2.9 19.69-9.28 4.05-6.09 2.6-14.5-4.06-17.98-9.26-4.93-25.77 4.06-32.43 10.73-.29.29-4.63 5.8-6.95 8.7.58-3.48 1.16-6.96 1.45-10.73 1.16-10.44 2.32-20.88 3.19-31.319.29-3.19.58-6.38.86-9.57 1.45.58 17.09 6.38 24.91 5.8 6.95-.58 15.63-2.9 19.69-9.28 4.05-6.09 2.6-14.5-4.06-17.98-9.26-4.93-25.77 4.06-32.43 10.73-.58.58-6.66 8.12-8.11 10.15.87-6.96 1.45-14.21 2.61-20.88 1.45-9.57 3.48-18.85 6.08-27.549.58.29 17.09 6.38 25.19 5.8 6.95-.58 15.64-2.9 19.69-9.28 4.06-6.09 2.61-14.5-4.05-17.98-9.27-4.93-25.77 4.06-32.43 10.73-.58.58-6.95 8.7-8.11 10.15.29-.58.29-1.16.29-1.74 2.9-9.28 6.95-17.98 11-26.1 2.32-4.64 4.93-8.99 7.53-13.05 2.9 1.45 16.51 8.12 23.75 8.41 6.95.29 15.92-1.16 20.55-6.96 4.64-5.51 4.06-14.21-2.02-18.27-8.69-5.8-26.06 1.16-33.59 6.96-.29.29-4.05 4.06-6.66 6.67 1.16-1.74 2.32-3.77 3.47-5.51 4.35-6.67 8.69-12.47 12.74-17.4 2.32-2.9 4.35-5.51 6.37-7.83 3.77 0 18.54-.58 24.91-3.479 6.37-2.9 13.61-8.41 15.05-15.66 1.45-6.96-2.89-14.5-10.42-15.08-10.42-1.16-22.59 13.05-26.35 21.75-.29.87-4.05 12.76-4.05 12.76h.29c-2.03 2.32-4.06 4.64-6.37 7.25-4.06 4.93-8.69 10.73-13.03 17.11-4.64 6.38-9.27 13.63-13.61 21.749-4.35 8.12-8.4 16.82-11.59 26.1v.29c0-3.19 0-11.6-.29-12.18-1.15-9.28-8.97-26.39-19.11-28.42-7.52-1.45-13.61 4.35-14.18 11.6-.58 7.25 4.63 14.79 9.84 19.43 5.79 5.22 22.01 10.44 23.45 10.73-2.89 8.989-5.21 18.559-6.95 28.419-.86 5.51-1.73 11.31-2.6 16.82v-5.22c-1.16-9.28-8.98-26.39-19.11-28.42-7.53-1.45-13.61 4.35-14.19 11.6-.58 7.25 4.63 14.79 9.84 19.43 5.22 4.64 19.12 9.28 22.59 10.44-.29 2.32-.58 4.35-.87 6.67-1.16 10.439-2.31 20.879-4.05 31.029-.58 3.48-1.16 7.25-1.74 10.73v-4.64c-1.16-9.28-8.98-26.39-19.11-28.42-7.53-1.45-13.61 4.35-14.19 11.6-.58 7.25 4.63 14.79 9.85 19.43 4.92 4.35 17.66 8.99 22 10.15-.87 3.48-1.45 7.25-2.31 10.73-.58 2.319-1.16 4.639-2.03 6.959-.87 2.32-1.45 4.64-2.32 6.96-1.44 4.35-3.18 8.7-4.92 13.05-1.16 2.9-2.32 5.8-3.47 8.41.57-3.48 1.44-10.73 1.44-11.31 0-6.09-2.02-16.24-6.37-23.199 0-.87 0-1.74-.29-2.61-1.15-7.25-7.81-12.47-15.05-10.44-10.14 2.61-16.51 20.299-17.09 29.579 0 .58.29 6.67.58 10.44-.58-2.32-.87-4.35-1.45-6.67-1.15-4.35-2.31-8.99-3.47-13.63-.58-2.32-1.45-4.64-2.03-6.959-.58-2.32-1.73-4.64-2.31-6.96-2.03-5.51-4.35-11.02-6.66-16.24 3.76-.87 17.66-4.35 23.16-8.7s11.29-11.31 11.29-18.56c0-7.249-5.79-13.339-13.32-12.759-10.42 1.16-19.4 17.689-21.13 26.679 0 .58-.87 7.25-.87 11.02-1.45-3.19-2.9-6.38-4.64-9.86-4.63-9.28-9.55-18.56-14.47-27.839l-4.35-8.7c1.45-.29 17.96-4.06 24.04-8.99 5.5-4.35 11.29-11.31 11.29-18.56 0-7.25-5.79-13.339-13.32-12.76-10.42 1.16-19.4 17.69-21.14 26.68 0 .58-.87 10.44-1.16 12.76-3.18-6.38-6.37-12.47-9.26-18.85-4.06-8.7-7.53-17.69-10.14-26.389.58-.29 17.96-4.06 24.33-8.99 5.5-4.35 11.29-11.31 11.29-18.56 0-7.25-5.79-13.34-13.32-12.76-10.42 1.16-19.4 17.69-21.14 26.68-.29.58-1.16 11.02-1.16 13.05-.29-.58-.29-1.16-.58-1.45-2.89-9.28-4.34-18.85-5.21-27.84-.58-5.22-.87-10.15-.87-15.08 3.19-.29 18.25-2.32 24.62-6.09 6.08-3.48 12.45-9.86 13.32-17.11.86-7.25-4.35-13.919-11.88-13.919-10.42 0-21.13 15.37-24.03 24.36-.29.58-1.16 5.51-2.03 9.28v-6.67c0-7.83.58-15.08.87-21.46.29-3.77.58-6.96 1.16-9.86 2.9-2.03 15.06-10.73 18.82-16.82 3.48-6.09 6.66-14.5 3.77-21.46-2.61-6.67-10.43-10.44-17.09-6.96-9.26 4.93-11.58 23.49-10.13 32.77 0 .87 3.76 13.05 3.76 12.76h.29c-.29 2.9-.87 6.09-1.16 9.57-.58 6.38-1.15 13.63-1.44 21.46-.29 7.83-.29 16.53.58 25.519.86 8.99 2.02 18.56 4.63 28.13v.29c-1.74-2.61-6.37-9.57-6.95-10.15-6.08-6.96-22.01-17.11-31.56-13.05-6.95 2.9-8.98 11.31-5.5 17.69 3.76 6.96 12.16 10.15 19.11 11.31Z"/><path fill="#81637D" fill-opacity=".06" d="M1849.15 89.136c.29 0 3.19-12.18 3.48-13.05 1.16-9.28-1.74-27.839-11.01-32.479-6.66-3.19-14.18.58-16.79 7.54-2.61 6.96.58 15.37 4.34 21.17 4.64 6.96 19.98 16.82 19.98 16.82ZM1305.66 85.076c7.52 3.19 25.77 2.9 25.77 2.9.29 0-4.06-11.89-4.35-12.76-4.05-8.41-16.79-22.33-26.93-20.88-7.52.87-11.58 8.41-9.84 15.37 1.74 7.25 8.98 12.47 15.35 15.37Z"/><path fill="#81637D" fill-opacity=".06" d="M1312.03 138.146c7.81 1.159 24.03-3.48 25.48-4.06 2.6 9.279 6.08 18.269 9.84 27.549 2.32 5.22 4.63 10.44 7.24 15.66-1.45-2.32-2.89-4.06-3.18-4.35-6.09-6.96-22.01-17.11-31.57-13.05-6.95 2.9-8.97 11.31-5.5 17.69 3.48 6.38 12.16 9.57 18.82 10.73 6.95 1.16 20.85-2.61 24.62-3.77.86 2.03 2.02 4.06 2.89 5.8 4.63 9.569 9.56 18.849 13.9 28.129 1.45 3.19 2.9 6.67 4.34 9.86-1.44-2.03-2.31-3.48-2.6-3.77-6.08-6.96-22.01-17.11-31.56-13.05-6.95 2.9-8.98 11.31-5.51 17.69 3.48 6.38 12.17 9.57 18.83 10.73 6.66.87 19.69-2.32 24.03-3.48 1.45 3.48 2.6 6.96 3.76 10.15.87 2.32 1.74 4.64 2.32 6.959.58 2.32 1.16 4.64 2.03 6.96 1.15 4.35 2.31 8.99 3.18 13.34.58 2.9 1.16 6.09 1.74 8.99-1.45-3.19-4.63-9.57-4.92-10.15-4.93-7.83-19.11-20.299-29.25-17.69-7.24 1.74-10.42 9.86-8.11 16.53 2.61 6.96 10.43 11.31 17.09 13.34 7.24 2.32 23.45.29 25.48 0 .87 4.93 1.74 9.57 2.6 13.92 1.74 8.99 2.9 17.399 3.77 24.359h6.66c-1.16-7.25-2.61-15.949-4.63-25.519-.87-4.93-2.03-10.15-3.19-15.66 1.16-.58 8.11-3.19 14.19-6.67 5.21 5.8 19.11 12.47 20.85 13.34-1.74 4.64-3.77 8.99-5.51 13.05-3.47 7.83-6.65 15.079-9.55 21.169h7.24c2.6-5.51 5.21-11.889 8.11-18.849 2.02-4.64 3.76-9.57 5.79-14.79 2.02.29 17.95 3.77 25.48 2.03 6.66-1.45 15.05-5.51 17.95-12.18 2.9-6.67.29-14.79-6.95-17.11-9.84-3.19-24.9 7.83-30.4 15.37-.29.58-3.19 5.51-5.21 8.99.86-2.03 1.44-4.06 2.31-6.38 1.45-4.35 2.9-8.7 4.64-13.34.57-2.32 1.44-4.64 2.02-6.96.87-2.32 1.16-4.93 1.74-7.249 1.45-5.51 2.32-11.31 3.47-17.4 3.77 1.45 17.09 6.09 24.33 5.51 6.95-.58 15.63-2.9 19.69-9.28 4.05-6.09 2.6-14.5-4.06-17.98-9.26-4.93-25.77 4.06-32.43 10.73-.29.29-4.63 5.8-6.95 8.7.58-3.48 1.16-6.96 1.45-10.73 1.16-10.44 2.32-20.88 3.19-31.319.29-3.19.58-6.38.86-9.57 1.45.58 17.09 6.38 24.91 5.8 6.95-.58 15.63-2.9 19.69-9.28 4.05-6.09 2.6-14.5-4.06-17.98-9.26-4.93-25.77 4.06-32.43 10.73-.58.58-6.66 8.12-8.11 10.15.87-6.96 1.45-14.21 2.61-20.88 1.45-9.57 3.48-18.85 6.08-27.549.58.29 17.09 6.38 25.19 5.8 6.95-.58 15.64-2.9 19.69-9.28 4.06-6.09 2.61-14.5-4.05-17.98-9.27-4.93-25.77 4.06-32.43 10.73-.58.58-6.95 8.7-8.11 10.15.29-.58.29-1.16.29-1.74 2.9-9.28 6.95-17.98 11-26.1 2.32-4.64 4.93-8.99 7.53-13.05 2.9 1.45 16.51 8.12 23.75 8.41 6.94.29 15.92-1.16 20.55-6.96 4.64-5.51 4.06-14.21-2.02-18.27-8.69-5.8-26.06 1.16-33.59 6.96-.29.29-4.06 4.06-6.66 6.67 1.16-1.74 2.32-3.77 3.47-5.51 4.35-6.67 8.69-12.47 12.74-17.4 2.32-2.9 4.35-5.51 6.37-7.83 3.77 0 18.54-.58 24.91-3.479 6.37-2.9 13.61-8.41 15.05-15.66 1.45-6.96-2.89-14.5-10.42-15.08-10.43-1.16-22.59 13.05-26.35 21.75-.29.87-4.05 12.76-4.05 12.76h.29c-2.03 2.32-4.06 4.64-6.38 7.25-4.05 4.93-8.68 10.73-13.03 17.11-4.63 6.38-9.26 13.63-13.6 21.749-4.35 8.12-8.4 16.82-11.59 26.1v.29c0-3.19 0-11.6-.29-12.18-1.15-9.28-8.97-26.39-19.11-28.42-7.53-1.45-13.61 4.35-14.18 11.6-.58 7.25 4.63 14.79 9.84 19.43 5.79 5.22 22.01 10.44 23.45 10.73-2.89 8.989-5.21 18.559-6.95 28.419-.86 5.51-1.73 11.31-2.6 16.82v-5.22c-1.16-9.28-8.98-26.39-19.11-28.42-7.53-1.45-13.61 4.35-14.19 11.6-.58 7.25 4.63 14.79 9.84 19.43 5.22 4.64 19.12 9.28 22.59 10.44-.29 2.32-.58 4.35-.87 6.67-1.16 10.439-2.32 20.879-4.05 31.029-.58 3.48-1.16 7.25-1.74 10.73v-4.64c-1.16-9.28-8.98-26.39-19.11-28.42-7.53-1.45-13.61 4.35-14.19 11.6-.58 7.25 4.63 14.79 9.85 19.43 4.92 4.35 17.66 8.99 22 10.15-.87 3.48-1.45 7.25-2.31 10.73-.58 2.319-1.16 4.639-2.03 6.959-.87 2.32-1.45 4.64-2.32 6.96-1.45 4.35-3.18 8.7-4.92 13.05-1.16 2.9-2.32 5.8-3.47 8.41.57-3.48 1.44-10.73 1.44-11.31 0-6.09-2.02-16.24-6.37-23.199 0-.87 0-1.74-.29-2.61-1.15-7.25-7.81-12.47-15.05-10.44-10.14 2.61-16.51 20.299-17.09 29.579 0 .58.29 6.67.58 10.44-.58-2.32-.87-4.35-1.45-6.67-1.15-4.35-2.31-8.99-3.47-13.63-.58-2.32-1.45-4.64-2.03-6.959-.58-2.32-1.73-4.64-2.31-6.96-2.03-5.51-4.35-11.02-6.66-16.24 3.76-.87 17.66-4.35 23.16-8.7s11.29-11.31 11.29-18.56c0-7.249-5.79-13.339-13.32-12.759-10.42 1.16-19.4 17.689-21.13 26.679 0 .58-.87 7.25-.87 11.02-1.45-3.19-2.9-6.38-4.64-9.86-4.63-9.28-9.55-18.56-14.47-27.839l-4.35-8.7c1.45-.29 17.96-4.06 24.04-8.99 5.5-4.35 11.29-11.31 11.29-18.56 0-7.25-5.79-13.339-13.32-12.76-10.42 1.16-19.4 17.69-21.14 26.68 0 .58-.87 10.44-1.16 12.76-3.18-6.38-6.37-12.47-9.26-18.85-4.06-8.7-7.53-17.69-10.14-26.389.58-.29 17.96-4.06 24.33-8.99 5.5-4.35 11.29-11.31 11.29-18.56 0-7.25-5.79-13.34-13.32-12.76-10.42 1.16-19.4 17.69-21.14 26.68-.29.58-1.16 11.02-1.16 13.05-.29-.58-.29-1.16-.58-1.45-2.89-9.28-4.34-18.85-5.21-27.84-.58-5.22-.87-10.15-.87-15.08 3.19-.29 18.25-2.32 24.62-6.09 6.08-3.48 12.45-9.86 13.32-17.11.86-7.25-4.35-13.919-11.88-13.919-10.42 0-21.13 15.37-24.03 24.36-.29.58-1.16 5.51-2.03 9.28v-6.67c0-7.83.58-15.08.87-21.46.29-3.77.58-6.96 1.16-9.86 2.9-2.03 15.06-10.73 18.82-16.82 3.48-6.09 6.66-14.5 3.77-21.46-2.61-6.67-10.43-10.44-17.09-6.96-9.26 4.93-11.58 23.49-10.13 32.77 0 .87 3.76 13.05 3.76 12.76h.29c-.29 2.9-.87 6.09-1.16 9.57-.58 6.38-1.15 13.63-1.44 21.46-.29 7.83-.29 16.53.57 25.519.87 8.99 2.03 18.56 4.64 28.13v.29c-1.74-2.61-6.37-9.57-6.95-10.15-6.08-6.96-22.01-17.11-31.56-13.05-6.95 2.9-8.98 11.31-5.5 17.69 3.76 6.96 12.16 10.15 19.11 11.31Z"/><path fill="#81637D" fill-opacity=".06" d="M1490.97 89.136c.29 0 3.19-12.18 3.48-13.05 1.15-9.28-1.74-27.839-11.01-32.479-6.66-3.19-14.19.58-16.79 7.54-2.61 6.96.58 15.37 4.34 21.17 4.35 6.96 19.69 16.82 19.98 16.82ZM1497.63 174.974c4.63 2.03 15.93 1.74 15.93 1.74s-2.32-7.54-2.61-7.83c-2.61-5.22-10.42-13.919-16.79-13.049-4.64.58-7.24 5.219-6.08 9.569 1.15 4.64 5.5 7.83 9.55 9.57Z"/><path fill="#81637D" fill-opacity=".06" d="M1501.69 208.034c4.92.58 15.05-2.32 15.63-2.61 1.74 5.8 3.77 11.31 6.08 17.11l4.35 9.57c-.87-1.45-1.74-2.61-2.03-2.61-3.77-4.35-13.61-10.73-19.69-8.12-4.34 1.74-5.5 6.96-3.48 11.02 2.32 4.06 7.53 6.09 11.88 6.67 4.34.58 13.03-1.74 15.34-2.32.58 1.16 1.16 2.32 1.74 3.77 2.89 5.8 5.79 11.6 8.69 17.399.86 2.03 1.73 4.06 2.6 6.09-.87-1.16-1.45-2.32-1.74-2.32-3.76-4.35-13.6-10.729-19.69-8.119-4.34 1.739-5.5 6.959-3.47 11.019 2.32 4.06 7.53 6.09 11.87 6.67 4.06.58 12.16-1.45 15.06-2.32.87 2.03 1.74 4.35 2.32 6.38.57 1.45.86 2.9 1.44 4.35.29 1.45.87 2.9 1.16 4.35.58 2.9 1.45 5.51 2.03 8.41.29 2.03.87 3.77 1.16 5.51-.87-2.03-2.9-6.09-3.19-6.38-3.18-4.93-11.87-12.47-18.24-11.02-4.63 1.16-6.66 6.09-4.92 10.15 1.44 4.35 6.37 6.96 10.71 8.41 4.63 1.45 14.48 0 15.93 0 .58 2.9 1.15 6.09 1.73 8.7.87 5.509 1.74 10.729 2.32 15.079h4.34c-.58-4.64-1.73-9.86-2.89-15.949-.58-3.19-1.16-6.38-2.03-9.57.87-.29 4.92-2.03 8.98-4.06 3.18 3.48 11.87 7.83 13.03 8.41-1.16 2.9-2.32 5.51-3.48 8.12-2.02 4.929-4.05 9.279-6.08 13.049h4.63c1.45-3.48 3.19-7.25 4.93-11.599 1.16-2.9 2.31-6.09 3.47-9.28 1.16.29 11.29 2.32 15.93 1.16 4.34-.87 9.26-3.48 11.29-7.54 1.74-4.06.29-8.99-4.34-10.73-6.08-2.03-15.64 4.93-18.82 9.57-.29.29-2.03 3.48-3.19 5.51.58-1.45.87-2.61 1.45-4.06.87-2.61 1.74-5.51 2.89-8.41.29-1.45.87-2.9 1.16-4.35.58-1.45.87-2.9 1.16-4.35.87-3.48 1.45-7.25 2.03-10.73 2.31.87 10.71 3.77 15.05 3.48 4.35-.29 9.85-2.03 12.17-5.8 2.31-3.77 1.44-8.99-2.61-11.02-5.79-2.899-16.22 2.61-20.27 6.67-.29.29-2.9 3.48-4.34 5.22.29-2.32.58-4.35.87-6.67.86-6.379 1.44-13.049 2.02-19.429.29-2.03.29-4.06.58-6.09.87.29 10.72 4.06 15.64 3.77 4.34-.29 9.84-2.03 12.16-5.8 2.32-3.77 1.45-8.99-2.61-11.02-5.79-2.9-16.21 2.61-20.27 6.67-.29.29-4.05 4.93-4.92 6.38.58-4.35.87-8.7 1.74-13.05.87-5.8 2.03-11.6 3.76-17.11.29.29 10.72 4.06 15.64 3.77 4.34-.29 9.84-2.03 12.16-5.8 2.32-3.77 1.45-8.989-2.61-11.019-5.79-2.9-16.21 2.61-20.26 6.669-.29.29-4.35 5.51-4.93 6.38 0-.29.29-.58.29-.87 1.74-5.8 4.35-11.309 6.66-16.239 1.45-2.9 3.19-5.51 4.64-8.12 1.73.87 10.42 4.93 14.76 5.22 4.35.29 9.85-.87 12.74-4.35 2.9-3.48 2.61-8.7-1.44-11.31-5.51-3.48-16.22.58-20.85 4.35l-4.06 4.06c.87-1.16 1.45-2.32 2.32-3.48 2.61-4.06 5.5-7.54 7.82-10.73 1.45-1.74 2.6-3.48 4.05-4.93 2.32 0 11.58-.29 15.35-2.32 4.05-1.74 8.4-5.22 9.26-9.86.87-4.35-1.73-8.989-6.37-9.569-6.37-.58-14.18 8.119-16.5 13.339-.29.58-2.61 7.83-2.32 7.83-1.16 1.45-2.6 2.9-3.76 4.64-2.61 3.19-5.21 6.67-8.11 10.73-2.89 4.06-5.79 8.41-8.4 13.34-2.6 4.93-5.21 10.44-7.24 16.239v.29-7.539c-.86-5.8-5.5-16.53-11.87-17.69-4.63-.87-8.39 2.61-8.97 7.25-.29 4.64 2.89 8.99 6.08 11.89 3.76 3.189 13.61 6.379 14.48 6.669-1.74 5.51-3.19 11.6-4.35 17.69l-1.74 10.44v-3.19c-.86-5.8-5.5-16.53-11.87-17.69-4.63-.87-8.39 2.61-8.97 7.25-.29 4.64 2.89 8.99 6.08 11.89 3.18 2.9 11.87 5.8 14.19 6.38-.29 1.45-.29 2.61-.58 4.06-.87 6.38-1.45 13.05-2.32 19.429-.29 2.32-.87 4.35-1.16 6.67v-2.9c-.87-5.8-5.5-16.529-11.87-17.689-4.63-.87-8.4 2.61-8.98 7.25-.29 4.639 2.9 8.989 6.08 11.889 3.19 2.9 11.01 5.51 13.61 6.38-.58 2.32-.87 4.35-1.44 6.67-.29 1.45-.58 2.9-1.16 4.35-.58 1.45-.87 2.9-1.45 4.35-.87 2.61-2.03 5.51-2.9 8.12-.57 1.74-1.44 3.48-2.02 5.22.29-2.32.87-6.67.87-6.96 0-3.77-1.16-10.15-4.06-14.5v-1.74c-.58-4.35-4.92-7.83-9.26-6.38-6.37 1.74-10.14 12.76-10.43 18.56 0 .29.29 4.06.29 6.38-.29-1.45-.58-2.61-.87-4.06-.58-2.9-1.44-5.51-2.31-8.41-.29-1.45-.87-2.9-1.16-4.35-.29-1.45-.87-2.9-1.45-4.35-1.16-3.48-2.61-6.67-4.05-10.15 2.31-.58 11-2.9 14.47-5.51 3.48-2.61 6.95-6.959 6.95-11.599 0-4.35-3.76-8.41-8.39-7.83-6.37.58-12.16 11.02-13.32 16.529 0 .29-.58 4.64-.58 6.67-.87-2.03-1.74-4.06-2.9-6.09-2.89-5.799-6.08-11.599-8.97-17.399-.87-1.74-1.74-3.48-2.9-5.22.87-.29 11-2.61 15.06-5.51 3.47-2.61 6.95-6.96 6.95-11.6 0-4.35-3.77-8.41-8.4-7.83-6.37.58-12.16 11.02-13.32 16.53 0 .29-.58 6.38-.58 7.83-2.03-3.77-4.05-7.83-5.79-11.89-2.61-5.51-4.63-11.02-6.37-16.24.29 0 11-2.61 15.06-5.51 3.47-2.609 6.95-6.959 6.95-11.599 0-4.35-3.77-8.41-8.4-7.83-6.37.58-12.16 11.02-13.32 16.53 0 .58-.58 6.959-.58 8.119 0-.29-.29-.58-.29-.87-1.74-5.8-2.6-11.599-3.18-17.399-.29-3.19-.58-6.38-.58-9.28 2.02-.29 11.29-1.45 15.34-3.77 3.77-2.32 7.82-6.09 8.11-10.73.58-4.35-2.61-8.7-7.24-8.7-6.37 0-13.03 9.57-15.05 15.08 0 .29-.87 3.48-1.16 5.8v-4.06c0-4.93.29-9.28.58-13.34.29-2.32.29-4.35.58-6.09 1.73-1.16 9.26-6.67 11.58-10.44 2.31-3.769 4.05-8.989 2.31-13.339-1.73-4.06-6.37-6.38-10.42-4.35-5.79 2.9-7.24 14.5-6.37 20.299 0 .58 2.32 8.12 2.32 8.12-.29 1.74-.58 3.77-.87 5.8-.29 4.06-.87 8.41-.87 13.34s0 10.15.29 15.95c.58 5.51 1.45 11.599 2.89 17.689v.29c-1.15-1.74-4.05-6.09-4.34-6.38-3.76-4.349-13.61-10.729-19.69-8.119-4.34 1.74-5.5 6.96-3.47 11.019 4.05 4.64 9.26 6.67 13.61 7.25Z"/><path fill="#81637D" fill-opacity=".06" d="M1612.58 177.585s2.03-7.54 2.03-8.12c.87-5.8-1.16-17.4-6.95-20.01-4.34-2.03-8.97.29-10.42 4.64-1.45 4.35.29 9.57 2.89 13.34 2.9 4.06 12.45 10.15 12.45 10.15ZM571.631 85.076c7.529 3.19 25.771 2.9 25.771 2.9.289 0-4.054-11.89-4.344-12.76-4.053-8.41-16.794-22.33-26.928-20.88-7.529.87-11.583 8.41-9.845 15.37 1.447 7.25 8.976 12.47 15.346 15.37Z"/><path fill="#81637D" fill-opacity=".06" d="M578.002 138.146c7.818 1.159 24.033-3.48 25.48-4.06 2.606 9.279 6.081 18.269 9.845 27.549 2.317 5.22 4.633 10.44 7.239 15.66-1.448-2.32-2.895-4.06-3.185-4.35-6.081-6.96-22.006-17.11-31.561-13.05-6.95 2.9-8.977 11.31-5.502 17.69 3.475 6.38 12.161 9.57 18.821 10.73 6.949 1.16 20.848-2.61 24.612-3.77.869 2.03 2.027 4.06 2.896 5.8 4.633 9.569 9.555 18.849 13.899 28.129 1.447 3.19 2.895 6.67 4.343 9.86-1.448-2.03-2.317-3.48-2.606-3.77-6.081-6.96-22.006-17.11-31.562-13.05-6.949 2.9-8.976 11.31-5.501 17.69 3.474 6.38 12.161 9.57 18.821 10.73 6.66.87 19.69-2.32 24.033-3.48 1.448 3.48 2.606 6.96 3.764 10.15.869 2.32 1.738 4.64 2.317 6.959.579 2.32 1.158 4.64 2.027 6.96 1.158 4.35 2.316 8.99 3.185 13.34.579 2.9 1.158 6.09 1.737 8.99-1.448-3.19-4.633-9.57-4.922-10.15-4.923-7.83-19.111-20.299-29.245-17.69-7.239 1.74-10.425 9.86-8.108 16.53 2.606 6.96 10.424 11.31 17.084 13.34 7.239 2.32 23.454.29 25.481 0 .868 4.93 1.737 9.57 2.606 13.92 1.737 8.99 2.895 17.399 3.764 24.359h6.66c-1.159-7.25-2.606-15.949-4.633-25.519-.869-4.93-2.027-10.15-3.185-15.66 1.158-.58 8.107-3.19 14.188-6.67 5.212 5.8 19.111 12.47 20.848 13.34-1.737 4.64-3.764 8.99-5.502 13.05-3.474 7.83-6.659 15.079-9.555 21.169h7.239c2.606-5.51 5.212-11.889 8.107-18.849 2.027-4.64 3.765-9.57 5.792-14.79 2.026.29 17.952 3.77 25.481 2.03 6.659-1.45 15.056-5.51 17.952-12.18 2.896-6.67.29-14.79-6.949-17.11-9.845-3.19-24.902 7.83-30.404 15.37-.289.58-3.185 5.51-5.212 8.99.869-2.03 1.448-4.06 2.317-6.38 1.448-4.35 2.895-8.7 4.633-13.34.579-2.32 1.447-4.64 2.026-6.96.869-2.32 1.159-4.93 1.738-7.249 1.448-5.51 2.316-11.31 3.474-17.4 3.765 1.45 17.084 6.09 24.323 5.51 6.95-.58 15.636-2.9 19.69-9.28 4.054-6.09 2.606-14.5-4.054-17.98-9.266-4.93-25.77 4.06-32.43 10.73-.29.29-4.633 5.8-6.949 8.7.579-3.48 1.158-6.96 1.447-10.73 1.159-10.44 2.317-20.88 3.186-31.319l.868-9.57c1.448.58 17.084 6.38 24.902 5.8 6.949-.58 15.636-2.9 19.69-9.28 4.054-6.09 2.606-14.5-4.054-17.98-9.266-4.93-25.77 4.06-32.43 10.73-.579.58-6.66 8.12-8.108 10.15.869-6.96 1.448-14.21 2.606-20.88 1.448-9.57 3.475-18.85 6.081-27.549.579.29 17.084 6.38 25.191 5.8 6.95-.58 15.636-2.9 19.69-9.28 4.054-6.09 2.606-14.5-4.054-17.98-9.266-4.93-25.77 4.06-32.43 10.73-.579.58-6.949 8.7-8.108 10.15.29-.58.29-1.16.29-1.74 2.896-9.28 6.949-17.98 11.003-26.1 2.317-4.64 4.923-8.99 7.529-13.05 2.895 1.45 16.504 8.12 23.743 8.41 6.949.29 15.926-1.16 20.559-6.96 4.633-5.51 4.053-14.21-2.027-18.27-8.687-5.8-26.06 1.16-33.589 6.96l-6.66 6.67c1.159-1.74 2.317-3.77 3.475-5.51a194.613 194.613 0 0 1 12.741-17.4c2.316-2.9 4.343-5.51 6.37-7.83 3.764 0 18.531-.58 24.902-3.479 6.37-2.9 13.609-8.41 15.057-15.66 1.447-6.96-2.896-14.5-10.424-15.08-10.424-1.16-22.586 13.05-26.35 21.75-.29.87-4.054 12.76-4.054 12.76h.29a1174.58 1174.58 0 0 1-6.371 7.25c-4.053 4.93-8.686 10.73-13.03 17.11a187.956 187.956 0 0 0-13.609 21.749c-4.343 8.12-8.397 16.82-11.582 26.1v.29c0-3.19 0-11.6-.289-12.18-1.159-9.28-8.977-26.39-19.111-28.42-7.529-1.45-13.609 4.35-14.188 11.6-.58 7.25 4.633 14.79 9.845 19.43 5.791 5.22 22.006 10.44 23.454 10.73-2.896 8.989-5.212 18.559-6.95 28.419-.868 5.51-1.737 11.31-2.606 16.82v-5.22c-1.158-9.28-8.976-26.39-19.111-28.42-7.528-1.45-13.609 4.35-14.188 11.6-.579 7.25 4.633 14.79 9.845 19.43 5.212 4.64 19.111 9.28 22.586 10.44-.29 2.32-.58 4.35-.869 6.67-1.158 10.439-2.317 20.879-4.054 31.029-.579 3.48-1.158 7.25-1.737 10.73v-4.64c-1.158-9.28-8.977-26.39-19.111-28.42-7.528-1.45-13.609 4.35-14.188 11.6-.579 7.25 4.633 14.79 9.845 19.43 4.922 4.35 17.663 8.99 22.006 10.15-.869 3.48-1.448 7.25-2.317 10.73-.579 2.319-1.158 4.639-2.026 6.959-.869 2.32-1.448 4.64-2.317 6.96-1.448 4.35-3.185 8.7-4.922 13.05-1.159 2.9-2.317 5.8-3.475 8.41.579-3.48 1.448-10.73 1.448-11.31 0-6.09-2.027-16.24-6.37-23.199 0-.87 0-1.74-.29-2.61-1.158-7.25-7.818-12.47-15.057-10.44-10.134 2.61-16.505 20.299-17.084 29.579 0 .58.29 6.67.579 10.44-.579-2.32-.868-4.35-1.447-6.67-1.159-4.35-2.317-8.99-3.475-13.63-.579-2.32-1.448-4.64-2.027-6.959-.579-2.32-1.737-4.64-2.316-6.96-2.027-5.51-4.344-11.02-6.66-16.24 3.764-.87 17.663-4.35 23.164-8.7 5.502-4.35 11.293-11.31 11.293-18.56 0-7.249-5.791-13.339-13.32-12.759-10.424 1.16-19.4 17.689-21.137 26.679 0 .58-.869 7.25-.869 11.02-1.448-3.19-2.895-6.38-4.633-9.86-4.633-9.28-9.555-18.56-14.478-27.839l-4.343-8.7c1.448-.29 17.953-4.06 24.033-8.99 5.502-4.35 11.293-11.31 11.293-18.56 0-7.25-5.791-13.339-13.32-12.76-10.424 1.16-19.4 17.69-21.137 26.68 0 .58-.869 10.44-1.158 12.76-3.186-6.38-6.371-12.47-9.266-18.85-4.054-8.7-7.529-17.69-10.135-26.389.579-.29 17.953-4.06 24.323-8.99 5.502-4.35 11.293-11.31 11.293-18.56 0-7.25-5.791-13.34-13.32-12.76-10.424 1.16-19.4 17.69-21.137 26.68-.29.58-1.159 11.02-1.159 13.05-.289-.58-.289-1.16-.579-1.45-2.895-9.28-4.343-18.85-5.212-27.84-.579-5.22-.868-10.15-.868-15.08 3.185-.29 18.242-2.32 24.612-6.09 6.08-3.48 12.451-9.86 13.319-17.11.869-7.25-4.343-13.919-11.871-13.919-10.424 0-21.138 15.37-24.034 24.36-.289.58-1.158 5.51-2.026 9.28v-6.67c0-7.83.579-15.08.868-21.46.29-3.77.579-6.96 1.158-9.86 2.896-2.03 15.057-10.73 18.822-16.82 3.474-6.09 6.659-14.5 3.764-21.46-2.606-6.67-10.424-10.44-17.084-6.96-9.266 4.93-11.582 23.49-10.134 32.77 0 .87 3.764 13.05 3.764 12.76h.289c-.289 2.9-.868 6.09-1.158 9.57-.579 6.38-1.158 13.63-1.448 21.46-.289 7.83-.289 16.53.579 25.519.869 8.99 2.027 18.56 4.633 28.13v.29c-1.737-2.61-6.37-9.57-6.949-10.15-6.081-6.96-22.006-17.11-31.562-13.05-6.949 2.9-8.976 11.31-5.501 17.69 3.764 6.96 12.161 10.15 19.111 11.31Z"/><path fill="#81637D" fill-opacity=".06" d="M756.657 89.136c.29 0 3.186-12.18 3.475-13.05 1.158-9.28-1.737-27.839-11.003-32.479-6.66-3.19-14.188.58-16.794 7.54s.579 15.37 4.343 21.17c4.633 6.96 19.979 16.82 19.979 16.82Z"/></svg>