<svg xmlns="http://www.w3.org/2000/svg" width="31" height="47" fill="none"><path fill="#81637D" d="M29.064 41.69c-1.236-1.06-2.922-1.644-4.746-1.644-2.4 0-4.06-.54-4.76-.82v-3.204c3.599-1.317 6.396-4.333 7.437-8.083 2.253-.285 4.004-2.235 4.004-4.58 0-2.17-1.52-4.034-3.563-4.504v-1.564c.808-2.861.758-5.67.57-7.533a23.126 23.126 0 0 0-.386-2.486 10.301 10.301 0 0 0-.231-.94.693.693 0 0 0-.043-.123c-.776-1.659-2.155-3.072-3.92-4.132a.722.722 0 0 0-.113-.067C21.145.74 18.41 0 15.5 0c-2.29 0-4.531.458-6.479 1.323a.71.71 0 0 0-.359.931c.156.357.569.52.923.363 1.771-.788 3.817-1.203 5.915-1.203 2.321 0 4.51.503 6.326 1.386-.851.739-1.864 1.45-3.075 2.16a.71.71 0 0 0-.253.966.697.697 0 0 0 .957.257c1.466-.86 2.668-1.729 3.661-2.649 1.215.803 2.182 1.803 2.797 2.947-.024.04-.05.078-.075.117l-.051.077c-1.533 2.253-4.785 4.412-9.49 6.3-.028.01-.057.021-.085.033l-.308.122c-4.68 1.825-9.453 2.897-11.135 3.245-.382-1.565-.503-3.108-.49-4.487.582-.118 1.162-.287 1.727-.451.444-.13.903-.264 1.345-.367l.022-.005c2.877-.77 5.708-1.808 9.181-3.369a.708.708 0 0 0 .355-.932.697.697 0 0 0-.924-.358c-3.397 1.527-6.161 2.542-8.96 3.29-.475.112-.95.25-1.407.383-.438.128-.86.251-1.275.35.152-1.975.525-3.393.6-3.664.484-1.014 1.25-1.936 2.279-2.742a.711.711 0 0 0 .124-.992.697.697 0 0 0-.982-.125c-1.221.957-2.133 2.068-2.711 3.305a.743.743 0 0 0-.037.097c-.067.223-1.608 5.49-.053 10.986v1.564C1.52 19.325 0 21.19 0 23.359c0 2.346 1.752 4.295 4.004 4.58 1.041 3.751 3.84 6.767 7.437 8.084v3.203c-.7.282-2.36.822-4.76.822-1.824 0-3.509.584-4.745 1.644C.688 42.762 0 44.214 0 45.778c0 .39.313.706.7.706h29.6c.387 0 .7-.316.7-.706 0-1.564-.688-3.016-1.936-4.088ZM27.32 26.364c.076-.553.116-1.113.116-1.671v-4.37a3.222 3.222 0 0 1 2.164 3.036 3.21 3.21 0 0 1-2.289 3.077l.01-.072ZM1.4 23.36c0-1.394.904-2.606 2.164-3.037v4.37c0 .56.04 1.119.115 1.672l.009.072A3.21 3.21 0 0 1 1.4 23.359ZM26.174 8.461l.048-.056.13-.152.025-.03c.317 1.786.641 4.927-.147 8.15a76.553 76.553 0 0 1-8.728-2.367c4-1.67 6.902-3.526 8.672-5.545ZM5.132 26.59a10.66 10.66 0 0 1-.168-1.898v-6.917a67.72 67.72 0 0 0 8.806-2.371l.04-.014h3.382a77.708 77.708 0 0 0 8.845 2.384v6.917c0 .627-.055 1.258-.165 1.877l-.003.021c-.716 3.999-3.655 7.226-7.473 8.33l-.019.005c-.934.265-1.906.403-2.877.403-.969 0-1.947-.132-2.878-.403l-.013-.004c-3.82-1.102-6.76-4.33-7.477-8.33Zm-3.666 18.48c.166-.873.641-1.673 1.376-2.304.983-.843 2.347-1.307 3.839-1.307 3.602 0 5.7-1.103 5.788-1.15a.707.707 0 0 0 .371-.624V36.44c.002.27 2.518.3 2.66.3.893 0 1.785-.1 2.658-.3v3.246c0 .261.143.5.371.623.088.048 2.186 1.15 5.788 1.15 1.492 0 2.856.465 3.839 1.308.736.631 1.21 1.43 1.376 2.303H1.466Z"/></svg>