<svg width="53" height="54" viewBox="0 0 53 54" fill="none" xmlns="http://www.w3.org/2000/svg">
<path d="M8.29079 42.1261C8.13114 42.529 7.74344 42.774 7.33258 42.774C7.20638 42.774 7.07759 42.7509 6.95266 42.7009C3.01029 41.1447 0.618597 39.1446 0.0338747 36.9185C-0.110374 36.3708 0.219337 35.8088 0.770576 35.6664C1.32181 35.524 1.88464 35.8511 2.0276 36.4003C2.43329 37.945 4.45278 39.5063 7.71382 40.7944C8.24186 41.0023 8.50076 41.5988 8.29079 42.1261ZM11.7927 31.3813C11.9872 31.5456 12.2242 31.6263 12.4599 31.6263C12.7509 31.6263 13.0408 31.5032 13.2442 31.2658C13.6139 30.8347 13.561 30.1869 13.1283 29.8186C12.617 29.385 12.1172 28.9257 11.6421 28.4523C7.11365 23.9414 4.74256 18.2078 5.46123 13.6379C7.39313 13.3364 9.53114 13.5802 11.6974 14.3012C11.7889 14.3486 11.8893 14.3833 11.9936 14.4026C14.8773 15.4187 17.7983 17.27 20.333 19.7949C20.9706 20.4299 21.5785 21.1047 22.1387 21.7976C22.4954 22.2389 23.1446 22.3082 23.5876 21.9528C24.0307 21.5975 24.1003 20.9508 23.7435 20.5095C23.1369 19.7589 22.48 19.0302 21.7897 18.3426C19.1855 15.7484 16.182 13.8047 13.1618 12.6577C13.0884 10.8013 13.4039 9.10651 14.0724 7.7709C15.7737 8.13912 17.5344 9.1706 19.1172 10.732C18.897 11.6083 18.7205 12.514 18.593 13.4429C18.5157 14.0048 18.9099 14.5219 19.4739 14.5989C20.0381 14.6758 20.5571 14.2833 20.6344 13.7213C21.3273 8.6921 23.5194 4.46985 26.5512 2.26443C29.583 4.46985 31.775 8.6908 32.4679 13.7187C32.5452 14.2807 33.0642 14.6733 33.6283 14.5963C34.1925 14.5193 34.5866 14.001 34.5093 13.4404C34.3818 12.5114 34.2054 11.607 33.9851 10.732C35.568 9.1706 37.3299 8.13912 39.03 7.7709C39.6971 9.10651 40.014 10.8013 39.9406 12.6577C36.9203 13.806 33.9169 15.7497 31.3127 18.3426C30.6223 19.0302 29.9655 19.7589 29.3589 20.5095C29.0021 20.9508 29.0716 21.5975 29.5147 21.9528C29.9578 22.3082 30.6069 22.2389 30.9636 21.7976C31.5239 21.1047 32.1318 20.4312 32.7693 19.7949C35.3039 17.27 38.2237 15.4174 41.1074 14.4026C41.213 14.3833 41.3135 14.3486 41.4049 14.3012C43.5712 13.5815 45.7092 13.3364 47.6411 13.6379C48.3598 18.2091 45.9887 23.9427 41.4603 28.4523C40.985 28.9257 40.4853 29.385 39.974 29.8186C39.5413 30.1856 39.4885 30.8335 39.8568 31.2658C40.2252 31.6969 40.8755 31.7495 41.3096 31.3826C41.8621 30.9143 42.403 30.4165 42.917 29.9046C48.1511 24.6919 50.7437 17.8729 49.5254 12.5345C49.4378 12.1496 49.1364 11.8495 48.7487 11.7609C46.6661 11.2888 44.3595 11.3902 42.0089 11.997C41.9871 9.73643 41.4461 7.67852 40.4441 6.09408C40.2329 5.76051 39.8478 5.57704 39.4537 5.62195C37.384 5.86058 35.2435 6.88695 33.3193 8.54841C31.9888 4.84447 29.8083 1.85645 27.0985 0.157805C26.7637 -0.0526016 26.3361 -0.0526016 26.0012 0.157805C23.2914 1.85645 21.1109 4.84447 19.7805 8.54841C17.8563 6.88695 15.7183 5.86058 13.646 5.62195C13.252 5.57704 12.8682 5.76051 12.6569 6.09408C11.6562 7.67852 11.1166 9.73643 11.0946 11.997C8.74543 11.3902 6.43749 11.2888 4.3549 11.7609C3.96851 11.8482 3.66714 12.1496 3.57827 12.5345C2.3586 17.8729 4.9525 24.6907 10.1867 29.9046C10.6992 30.4152 11.2402 30.9118 11.7927 31.3813ZM11.3046 39.4075C11.4926 38.8725 11.2093 38.2875 10.6722 38.1002C7.56317 37.0174 5.70723 35.6485 5.70723 34.4399C5.70723 33.6585 6.51605 32.7759 7.98426 31.9535C8.48014 31.6764 8.65657 31.0503 8.37712 30.5564C8.0989 30.0624 7.47038 29.8866 6.97456 30.1651C4.76575 31.4019 3.64653 32.84 3.64653 34.4412C3.64653 36.6582 5.84117 38.5929 9.99217 40.0401C10.1043 40.0798 10.2188 40.0978 10.3322 40.0978C10.7585 40.0965 11.1565 39.8309 11.3046 39.4075ZM42.2266 38.172C41.6883 38.3542 41.3997 38.9367 41.5826 39.4742C41.7282 39.9015 42.1287 40.1709 42.5576 40.1709C42.6671 40.1709 42.7791 40.1529 42.8886 40.1157C47.1865 38.6622 49.4597 36.6992 49.4597 34.4399C49.4597 32.8965 48.4164 31.5019 46.3596 30.2946C45.8689 30.0072 45.2378 30.1689 44.9493 30.6577C44.6608 31.1465 44.8231 31.7752 45.3138 32.0625C46.6584 32.8516 47.399 33.6958 47.399 34.4386C47.3977 35.6625 45.4168 37.0931 42.2266 38.172ZM36.771 45.6735C36.771 46.7127 35.9221 47.5595 34.8777 47.5595C34.3084 47.5595 33.8473 48.0188 33.8473 48.5859C33.8473 49.1529 34.3084 49.6122 34.8777 49.6122C37.0582 49.6122 38.8316 47.8456 38.8316 45.6735C38.8316 45.1065 38.3705 44.6472 37.8013 44.6472C37.232 44.6472 36.771 45.1065 36.771 45.6735ZM52.2287 35.6664C51.6787 35.524 51.1146 35.8511 50.9717 36.4003C50.566 37.9462 48.5478 39.5063 45.2867 40.7944C44.7574 41.0036 44.4986 41.6001 44.7085 42.1274C44.8682 42.5303 45.2571 42.7753 45.6667 42.7753C45.7929 42.7753 45.9217 42.7522 46.0466 42.7022C49.989 41.1447 52.382 39.1446 52.9667 36.9185C53.1097 36.3708 52.7787 35.8101 52.2287 35.6664ZM33.9194 36.1116C33.9194 36.671 33.4635 37.1251 32.9019 37.1251C32.3327 37.1251 31.8716 37.5844 31.8716 38.1515C31.8716 38.7186 32.3327 39.1779 32.9019 39.1779C34.5995 39.1779 35.9802 37.8025 35.9802 36.1116C35.9802 35.5445 35.5191 35.0852 34.9498 35.0852C34.3805 35.0852 33.9194 35.5458 33.9194 36.1116ZM30.9752 29.5569H31.2444C31.8136 29.5569 32.2747 29.0976 32.2747 28.5306C32.2747 27.9635 31.8136 27.5042 31.2444 27.5042H30.9752C30.4059 27.5042 29.9448 27.9635 29.9448 28.5306C29.9448 29.0976 30.4072 29.5569 30.9752 29.5569ZM41.6187 41.3243C42.5628 42.6291 43.0625 44.1674 43.0625 45.7723C43.0625 49.9817 39.625 53.4072 35.398 53.4072H17.7082C13.4825 53.4072 10.0437 49.983 10.0437 45.7736C10.0437 42.9806 11.597 40.425 14.008 39.0932C13.6705 38.3337 13.4838 37.4921 13.4838 36.6094C13.4838 33.9241 15.2161 31.634 17.6258 30.7899C17.0939 30.0227 16.7809 29.0925 16.7809 28.0905C16.7809 25.4668 18.924 23.332 21.5578 23.332H31.5483C34.1822 23.332 36.3253 25.4668 36.3253 28.0905C36.3253 30.7141 34.1822 32.849 31.5483 32.849H21.5578C20.9165 32.849 20.3047 32.722 19.7445 32.4936C19.7212 32.4949 19.6968 32.4962 19.6736 32.4962C17.3966 32.4962 15.5445 34.3411 15.5445 36.6094C15.5445 37.4575 15.8034 38.2477 16.2477 38.9034C16.2825 38.9456 16.3146 38.9906 16.343 39.038C17.0952 40.058 18.3084 40.7226 19.6736 40.7226H33.4326C35.7096 40.7226 37.5617 38.8777 37.5617 36.6094C37.5617 35.388 37.0156 34.2346 36.0626 33.4456C35.6247 33.0838 35.5655 32.4359 35.9286 31.9997C36.2918 31.5635 36.9422 31.5045 37.3802 31.8663C38.8046 33.0466 39.6224 34.7748 39.6224 36.6081C39.6224 40.0079 36.8457 42.774 33.4326 42.774H19.6736C17.8898 42.774 16.2799 42.0184 15.1491 40.8111C13.3035 41.7618 12.1044 43.6759 12.1044 45.7723C12.1044 48.8502 14.6185 51.3545 17.7082 51.3545H35.398C38.4877 51.3545 41.0018 48.8502 41.0018 45.7736C41.0018 44.6023 40.6373 43.4796 39.947 42.5265C39.6147 42.0672 39.719 41.4256 40.1801 41.0933C40.6412 40.7611 41.2852 40.865 41.6187 41.3243ZM18.8416 28.0905C18.8416 29.5826 20.06 30.7963 21.5578 30.7963H31.5483C33.0462 30.7963 34.2646 29.5826 34.2646 28.0905C34.2646 26.5984 33.0462 25.3848 31.5483 25.3848H21.5578C20.06 25.3848 18.8416 26.5984 18.8416 28.0905Z" fill="#81637D"/>
</svg>
