<svg width="43" height="52" viewBox="0 0 43 52" fill="none" xmlns="http://www.w3.org/2000/svg">
<path d="M42.2392 18.6895C41.6005 17.9543 40.6559 17.5335 39.6481 17.5335H31.4395V15.7928C31.4395 13.2435 29.3689 11.1693 26.8238 11.1693H26.0287V11.0397C26.0287 9.2177 24.5867 7.72816 22.7858 7.65281V5.91914C23.5399 5.74236 24.1946 5.48824 24.7452 5.15376C25.768 4.53202 26.2112 3.7807 26.4027 3.2604C26.8299 2.09827 26.3806 0.766382 25.3799 0.229012C25.0951 0.0773415 24.7933 0 24.4814 0C23.8026 0 23.1648 0.377668 22.7798 0.995394C22.5852 1.12296 21.8412 1.50766 19.945 1.50766H15.221C12.8214 1.50766 11.3303 3.15092 11.3303 5.79761C11.3303 7.09436 12.2629 8.15003 13.41 8.15003C14.4318 8.15003 15.2842 7.31228 15.4576 6.21244H17.7269V7.65281C15.9259 7.72816 14.4839 9.2177 14.4839 11.0397V11.1693H13.6878C11.1428 11.1693 9.07212 13.2435 9.07212 15.7928V15.861H6.09795C4.7783 15.861 3.70435 16.9368 3.70435 18.2587V22.7897C2.98337 23.4074 2.52511 24.3235 2.52511 25.347V26.8405C1.15736 27.8189 0.225797 29.3818 0.106466 31.1747C0.055326 31.9612 0.0192266 32.7948 0.00017461 33.6507C-0.00885024 34.0835 0.33309 34.4421 0.765275 34.4522C1.19646 34.4622 1.55545 34.1187 1.56447 33.6858C1.58252 32.8531 1.61761 32.0435 1.66775 31.2781C1.77205 29.6952 2.74672 28.3582 4.10044 27.7255C4.11047 27.7215 4.11949 27.7164 4.12852 27.7124C4.67 27.4663 5.26965 27.3337 5.86428 27.3337H9.96756C10.5642 27.3337 11.1609 27.4663 11.7033 27.7124C11.7134 27.7164 11.7224 27.7215 11.7314 27.7255C13.1001 28.3613 14.0638 29.7685 14.1641 31.2781C14.2433 32.4684 14.2824 33.6918 14.2824 34.9122C14.2824 35.4898 14.2664 36.0663 14.2543 36.6429C14.2533 36.6629 14.2533 36.683 14.2523 36.7041C14.2453 36.9081 13.6788 37.4705 13.5604 37.6815C13.3659 38.0279 13.2085 38.3926 13.0921 38.7723C12.8274 39.6341 12.7712 40.5431 12.7552 41.4391C12.7321 42.781 12.8655 44.1289 13.1613 45.4387C13.1623 45.4448 13.1633 45.4498 13.1654 45.4558C12.671 46.8178 11.3995 47.7188 9.9415 47.7188H5.89036C4.27893 47.7188 2.86705 46.5677 2.53113 44.9817C1.99867 42.4656 1.67979 39.7064 1.58252 36.7795C1.56848 36.3466 1.20448 36.007 0.774303 36.0221C0.342112 36.0362 0.00318269 36.3988 0.0182237 36.8317C0.118499 39.85 0.449411 42.7016 0.999918 45.3071C1.48726 47.6133 3.54491 49.2877 5.89036 49.2877H9.94348C11.4676 49.2877 12.8514 48.6117 13.777 47.4978C14.2714 48.8166 14.9372 50.04 15.7605 51.1208C15.9089 51.3147 16.1385 51.4292 16.3822 51.4292H31.1517C31.3954 51.4292 31.626 51.3147 31.7734 51.1208C32.0121 50.8084 32.2367 50.483 32.4483 50.1485H39.1778C39.61 50.1485 39.9609 49.798 39.9609 49.3641V42.8914L41.8191 29.4461C41.8783 29.0172 41.5794 28.6214 41.1512 28.5622C40.7221 28.5029 40.328 28.8022 40.2688 29.2311L38.7827 39.9866H34.6915C34.6383 39.4714 34.526 38.9631 34.3445 38.478C33.787 36.9894 32.6458 35.8152 31.2149 35.2025L31.1868 34.9966L29.2375 20.8903C29.2305 20.84 29.2265 20.7888 29.2244 20.7386C29.2244 20.7356 29.2244 20.7336 29.2244 20.7305C29.2104 20.2233 29.4821 19.7663 29.8773 19.466C30.1951 19.2249 30.6123 19.1024 31.0084 19.1024H39.6491C40.2036 19.1024 40.7181 19.3273 41.06 19.7201C41.3508 20.0546 41.4791 20.4704 41.421 20.8893L40.702 26.0932C40.6428 26.5222 40.9417 26.9179 41.3698 26.9772C41.798 27.0365 42.1931 26.7371 42.2522 26.3082L42.9712 21.1032C43.0915 20.2284 42.8319 19.3706 42.2392 18.6895ZM15.22 4.64351C14.859 4.64351 14.4108 4.68469 14.151 4.97096C13.9475 5.19495 13.9235 5.50934 13.9235 5.79761C13.9235 6.25965 13.6527 6.58207 13.409 6.58207C13.1654 6.58207 12.8946 6.25965 12.8946 5.79761C12.8946 3.42914 14.3516 3.07659 15.22 3.07659H19.944C20.674 3.07659 21.432 3.03039 22.157 2.87369C22.7817 2.73809 23.4807 2.53721 23.94 2.06713C24.1074 1.89537 24.1886 1.56994 24.4804 1.56994C24.5326 1.56994 24.5837 1.584 24.6369 1.61212C24.9136 1.76077 25.0981 2.26601 24.9307 2.72001C24.7963 3.08563 24.2137 4.11919 21.8923 4.50088C21.8863 4.50189 21.8813 4.50189 21.8752 4.50289C21.2375 4.60735 20.5898 4.64451 19.944 4.64451H18.509L15.22 4.64351ZM21.2185 6.16021V7.6478H19.2922V6.21144C19.2942 6.24559 21.2185 6.17628 21.2185 6.16021ZM17.8683 9.21573H18.509H22.0016H22.6424C23.6451 9.21573 24.4614 10.0333 24.4614 11.0378V11.1674H16.0492V11.0378C16.0492 10.0333 16.8655 9.21573 17.8683 9.21573ZM5.27065 18.2617C5.27065 18.2607 5.27065 18.2587 5.27065 18.2576C5.27065 17.8006 5.64168 17.429 6.09795 17.429H9.73493C9.75296 17.429 9.77001 17.431 9.78705 17.432C9.79107 17.432 9.79409 17.433 9.79706 17.433C10.7146 17.5003 10.5622 18.57 10.5622 19.2128C10.5622 19.9933 10.5622 20.7738 10.5622 21.5542C10.5622 21.716 10.5622 21.8767 10.5622 22.0384C10.3606 22.0012 10.155 21.9821 9.94953 21.9821C9.94953 21.9821 5.88434 21.9821 5.88233 21.9821C5.69281 21.9821 5.47121 22.0374 5.27165 22.0313C5.21249 20.7828 5.27065 19.5132 5.27065 18.2617ZM11.7425 26.0441C11.7425 25.816 10.1882 25.7638 9.96756 25.7638H5.86629C5.26564 25.7638 4.66299 25.8592 4.09141 26.0441C4.09141 26.0441 4.09141 25.346 4.09141 25.3449C4.09141 24.3757 4.91568 23.549 5.88434 23.549H9.95151C10.5402 23.549 11.1087 23.8544 11.4376 24.3425C11.7806 24.8518 11.7425 25.4584 11.7425 26.0441ZM33.6557 47.8383C33.6676 47.7992 33.6767 47.769 33.6837 47.7499C33.9555 46.9805 34.1981 46.1971 34.3756 45.3996C34.6564 44.14 34.7937 42.8433 34.7787 41.5526H38.3956V42.8352V48.5776C38.3956 48.5776 33.3057 48.5776 33.3037 48.5776C33.438 48.5786 33.5864 48.0673 33.6557 47.8383ZM32.8153 38.8807H29.1191C28.687 38.8807 28.336 39.2313 28.336 39.6652C28.336 40.0992 28.686 40.4497 29.1191 40.4497H33.1603C33.1633 40.4828 33.1653 40.5169 33.1683 40.5501C33.412 43.7985 32.6599 47.1854 30.7566 49.8602H16.7783C15.8186 48.5123 15.1237 46.9303 14.7216 45.2228C14.3556 43.6669 14.2413 42.0427 14.3736 40.4497H25.9876C26.4197 40.4497 26.7707 40.0992 26.7707 39.6652C26.7707 39.2313 26.4208 38.8807 25.9876 38.8807H14.7166C14.9192 38.3996 15.212 37.9587 15.585 37.577C16.3662 36.7775 17.4822 36.3014 18.6123 36.3014H28.9217C29.2796 36.3014 29.6326 36.3476 29.9725 36.4369C31.226 36.7634 32.3019 37.6614 32.8153 38.8807ZM29.8732 17.7193C29.8732 17.7143 28.9397 18.2044 28.8505 18.2747C27.3142 19.5012 27.7103 21.2931 27.944 22.9855L29.5724 34.7696C29.5674 34.7686 29.5624 34.7686 29.5564 34.7686C29.4671 34.7585 29.3769 34.7515 29.2866 34.7455C29.2666 34.7445 29.2475 34.7425 29.2275 34.7415C29.1262 34.7365 29.0239 34.7324 28.9206 34.7324H18.6123C18.1159 34.7324 17.6206 34.7967 17.1403 34.9223C16.9066 34.9835 16.676 35.0589 16.4524 35.1473C16.3701 35.1804 15.8477 35.3622 15.8467 35.4305C15.8487 35.2557 15.8487 35.083 15.8487 34.9102C15.8487 33.6547 15.8076 32.3971 15.7264 31.1727C15.6672 30.2797 15.3945 29.3989 14.9442 28.6265C14.7397 28.2759 14.498 27.9465 14.2252 27.6461C14.0839 27.4904 13.9344 27.3428 13.777 27.2041C13.7179 27.1519 13.3078 26.8868 13.3078 26.8315V25.3439C13.3078 24.3767 12.8715 23.4174 12.1285 22.7847V18.2566C12.1285 18.2004 12.1255 18.1452 12.1214 18.0899C12.1205 18.0789 12.1195 18.0668 12.1185 18.0558C12.0423 17.1407 11.4517 16.3703 10.6374 16.0369V15.7908C10.6374 14.1063 12.0062 12.7353 13.6878 12.7353H15.2661H25.2435H26.8219C28.5035 12.7353 29.8723 14.1063 29.8723 15.7908C29.8732 15.7918 29.8732 17.7193 29.8732 17.7193Z" fill="#81637D"/>
</svg>
